<?xml version="1.0" encoding="utf-8"?>
<!-- Generator: Adobe Illustrator 22.0.1, SVG Export Plug-In . SVG Version: 6.00 Build 0)  -->
<svg version="1.1" id="Capa_1" xmlns="http://www.w3.org/2000/svg" xmlns:xlink="http://www.w3.org/1999/xlink" x="0px" y="0px"
	 viewBox="0 0 512 512" style="enable-background:new 0 0 512 512;" xml:space="preserve">
<style type="text/css">
	.st0{fill:#E6E6E7;}
</style>
<g>
	<path class="st0" d="M139.7,72.1V39.9c-22,3.8-38.9,21.9-41.2,44.3l31.8-2.2C132.1,77.7,135.5,74.3,139.7,72.1z"/>
	<path class="st0" d="M338.2,39.1H234.7c0-21.5-17.5-39.1-39.1-39.1c-21.5,0-39.1,17.5-39.1,39.1v133c0,21.5,17.5,39.1,39.1,39.1
		c21.5,0,39.1-17.5,39.1-39.1v-53.8c0-9.3-7.6-16.9-16.9-16.9s-16.9,7.6-16.9,16.9v53.8c0,2.9-2.4,5.3-5.3,5.3
		c-2.9,0-5.3-2.4-5.3-5.3v-133c0-2.9,2.4-5.3,5.3-5.3c2.9,0,5.3,2.4,5.3,5.3h-5.3v30.8l131.1-0.1v65.9c0,19.3,15.7,34.9,34.9,34.9
		l64.6-0.2l0.7,291.3c0,10.8-8.7,19.5-19.5,19.5H148.3c-10.8,0-19.5-8.7-19.5-19.5v-136L98,327.8v133.9c0,27.7,22.6,50.3,50.3,50.3
		h259.2c27.7,0,50.3-22.6,50.3-50.3V158.2L338.2,39.1z"/>
	<path class="st0" d="M300.5,283.4L288,101.7c-0.2-3.6-1.9-6.9-4.6-9.3c-2.5-2.1-5.6-3.3-8.9-3.3c-0.3,0-0.6,0-0.9,0l-35.2,2.4
		c8,6.2,13.2,15.8,13.2,26.7v53.8c0,30.9-25.1,56-56,56s-56-25.1-56-56V98.3l-72.9,5c-7.5,0.5-13.1,7-12.6,14.4l12.5,181.7
		c0.2,3.6,1.9,6.9,4.6,9.3c2.5,2.1,5.6,3.3,8.9,3.3c0.3,0,0.6,0,0.9,0l206.8-14.2C295.4,297.3,301,290.9,300.5,283.4z"/>
</g>
</svg>
