<?xml version="1.0" encoding="utf-8"?>
<!-- Generator: Adobe Illustrator 22.0.1, SVG Export Plug-In . SVG Version: 6.00 Build 0)  -->
<svg version="1.1" id="Capa_1" xmlns="http://www.w3.org/2000/svg" xmlns:xlink="http://www.w3.org/1999/xlink" x="0px" y="0px"
	 viewBox="0 0 512 512" style="enable-background:new 0 0 512 512;" xml:space="preserve">
<style type="text/css">
	.st0{fill:#E6E6E7;}
</style>
<g>
	<path class="st0" d="M221.7,63.3c-4.7,0-8.4,0.1-12.1,0c-6.7-0.3-10.1-3.9-10.1-10.6c-0.1-14.1-0.1-28.2,0-42.4
		c0-6.9,3.3-10.3,10.3-10.3c30.8-0.1,61.7-0.1,92.5,0c7.2,0,10.3,3.4,10.4,10.8c0.1,13.6,0,27.1,0,40.7c0,8.5-3.3,11.7-11.8,11.8
		c-3.1,0-6.3,0-9.9,0c0,11.5,0,22.7,0,33.3c14.3,4.4,28.7,8,42.4,13.4c13.5,5.4,26.2,12.7,40,19.5c0-4.6-0.6-9.6,0.2-14.4
		c0.6-3.8,1.8-8.1,4.3-10.8c8.4-9.2,17.4-17.8,26.3-26.5c5.7-5.7,10-5.6,15.7,0.1c9.7,9.7,19.5,19.4,29.2,29.2
		c5.6,5.6,5.7,9.6,0.2,15.3c-8.8,9-17.6,18.1-26.9,26.7c-2.6,2.4-6.8,3.4-10.4,4.3c-2.9,0.7-6.1,0.1-10.1,0.1
		c6.3,7.2,11.9,13.3,17.1,19.7c33.4,42,48.5,90.1,45.5,143.5C459,409.7,389,489.6,297.3,507.9C188.5,529.7,81.2,462.2,53.8,354.8
		c-29-113.6,43.5-230.5,158.3-255.2c9.6-2.1,9.6-2.1,9.6-11.7C221.7,79.9,221.7,72,221.7,63.3z M255.6,471.1
		c94.3,0,167.3-76.7,168.1-166c0.9-89.4-69.6-164.8-159-169.3c-98.2-4.9-175.9,74-176.5,166.3C87.6,391.4,159.5,470.4,255.6,471.1z"
		/>
	<path class="st0" d="M335.4,205c9,0.1,14.4,3.3,17.2,9.9c3,6.9,1.9,13.5-3.4,19c-8.9,9.2-18.1,18.2-27.1,27.2
		c-18,18-36,35.9-53.9,54c-5,5.1-10.8,7.1-17.7,5.4c-11.2-2.9-16.2-16.2-9.8-25.9c1.1-1.7,2.5-3.2,4-4.6
		c26.1-26.1,52.2-52.2,78.3-78.4C327,207.6,331.3,204.7,335.4,205z"/>
</g>
</svg>
