<?xml version="1.0" encoding="utf-8"?>
<!-- Generator: Adobe Illustrator 22.0.1, SVG Export Plug-In . SVG Version: 6.00 Build 0)  -->
<svg version="1.1" id="Capa_1" xmlns="http://www.w3.org/2000/svg" xmlns:xlink="http://www.w3.org/1999/xlink" x="0px" y="0px"
	 viewBox="0 0 512 512" style="enable-background:new 0 0 512 512;" xml:space="preserve">
<style type="text/css">
	.st0{fill:#E6E6E7;}
</style>
<g>
	<path class="st0" d="M0,456.6c4.3-13.9,7.7-28.2,13.2-41.6c14-34.3,40.1-57.1,75.5-64.5c37.1-7.8,70.3-24.2,104.4-39
		c4.7-2.1,6.8-4.8,6.3-10c-0.4-4.6-0.3-9.3,0-13.9c1-15-1-28.2-10.5-41.5c-7.3-10.2-9-24.4-12.8-36.9c-1.1-3.6-1.6-6-6-7.7
		c-3.5-1.3-7.7-5.6-8.2-9.1c-2.3-15.1-3.8-30.4-4.5-45.7c-0.2-3.8,3.8-7.7,5.9-11.6c0.8,0.3,1.5,0.6,2.3,0.9
		c-1.1-11.1-2-22.3-3.2-33.4c-3.6-31.2,9.4-55,33-74c35-28.2,90.7-28.1,124.3,0.2c22.6,19.1,31.2,44.1,28.7,73.2
		c-1,11.2-2.4,22.3-1.8,32.7c2.3,4.1,6.6,8.2,6.4,12.1c-0.5,14.8-2.1,29.6-4,44.3c-0.7,5.8-4.2,10.1-10.8,11.5
		c-1.6,0.3-3.3,3.7-3.6,5.8c-2.9,16.3-7.1,32.1-17.6,45.2c-4.9,6-6.4,11.9-6.1,19.3c0.5,9.5,0.5,19.1,0.1,28.6
		c-0.2,5,1.7,7.6,6.1,9.4c22.7,9.6,45.3,19.3,67.9,29c1.7,0.7,3.4,1.6,3.8,1.8c-2.3,11.6-4.4,22.4-6.8,34.2c-19.5,0-40.7,0-61.9,0
		c-11.6,0-22.2,3.4-31.1,10.9c-16,13.4-21.8,34-15.2,52.8c7.1,19.9,25.1,32.8,46.5,32.9c21,0.1,42,0,61.9,0
		c2,10.8,3.8,20.9,5.7,31.5c-1,0.1-2.8,0.4-4.6,0.4c-119.1,0-238.1,0-357.2,0.2c-11.8,0-19.9-5-26.2-14.3C0,479.1,0,467.8,0,456.6z"
		/>
	<path class="st0" d="M512,430.2c-4.1,5.4-7.6,11.2-12.2,16c-16.2,16.6-32.7,33-49.2,49.3c-11,10.9-26,11.5-35.8,1.5
		c-10-10.3-9.3-24.6,2-35.7c4-3.9,8.3-7.5,14.1-12.7c-4.6-0.4-6.6-0.7-8.6-0.7c-33.5,0-67-0.5-100.5,0.2
		c-13.2,0.3-25.6-8.2-26.6-23.4c-0.9-13.7,10.5-24.7,26-24.8c32.8-0.3,65.5-0.1,98.3-0.1c2.6,0,5.3,0,9.9,0
		c-5.5-5.5-9.7-9.7-13.8-14c-10.5-10.7-10.9-25.4-1-35.3c9.9-9.9,24.4-9.3,35.2,1.4c16.8,16.8,33.7,33.4,50.2,50.4
		c4.6,4.8,8.1,10.7,12.1,16.1C512,422.4,512,426.3,512,430.2z"/>
	<path class="st0" d="M512,485.9c-8.1,16.1-17.5,20.9-36.1,17.3c12.6-11.6,24.3-22.5,36.1-33.4C512,475.2,512,480.5,512,485.9z"/>
</g>
</svg>
