<?xml version="1.0" encoding="utf-8"?>
<!-- Generator: Adobe Illustrator 22.0.1, SVG Export Plug-In . SVG Version: 6.00 Build 0)  -->
<svg version="1.1" id="Capa_1" xmlns="http://www.w3.org/2000/svg" xmlns:xlink="http://www.w3.org/1999/xlink" x="0px" y="0px"
	 viewBox="0 0 512 512" style="enable-background:new 0 0 512 512;" xml:space="preserve">
<style type="text/css">
	.st0{fill:#E6E6E7;}
</style>
<path class="st0" d="M504.2,246.6h-61.6v-63.1c0-5.4-4.3-9.7-9.7-9.7h-21.9V59.9c0-7.1-5.8-12.9-12.9-12.9H12.9
	C5.8,47,0,52.8,0,59.9v247.2c0,7.1,5.8,12.9,12.9,12.9h133.8c-2.6,14.8-8.1,39.2-19.2,63.5c-1.8,4-1.5,8.7,0.9,12.4
	c2.4,3.7,6.5,6,10.9,6h91.2v34c0,5.4,4.3,9.7,9.7,9.7h139.6v11.8c0,4.3,3.5,7.8,7.8,7.8h116.8c4.3,0,7.8-3.5,7.8-7.8V254.4
	C512,250.1,508.5,246.6,504.2,246.6z M230.4,183.5v110.7H25.9V72.9h359.3v101H240.1C234.7,173.8,230.4,178.2,230.4,183.5z
	 M379.7,426.1H249.8v-11.3h77v0.9c0,5.4,4.3,9.7,9.7,9.7c5.4,0,9.7-4.3,9.7-9.7v-0.9h33.5V426.1z M379.7,254.4v141H249.8V193.2
	h173.5v53.4h-35.8C383.2,246.6,379.7,250.1,379.7,254.4z M496.5,449.5H395.2v-9.1h42.9v0.8c0,4.3,3.5,7.8,7.8,7.8
	c4.3,0,7.8-3.5,7.8-7.8v-0.8h42.9V449.5z M496.5,424.8H395.2v-138h101.3V424.8z M496.5,271.3H395.2v-9.1h101.3V271.3z"/>
</svg>
