<?xml version="1.0" encoding="utf-8"?>
<!-- Generator: Adobe Illustrator 24.0.2, SVG Export Plug-In . SVG Version: 6.00 Build 0)  -->
<svg version="1.1" id="Capa_1" xmlns="http://www.w3.org/2000/svg" xmlns:xlink="http://www.w3.org/1999/xlink" x="0px" y="0px"
	 viewBox="0 0 500 500" style="enable-background:new 0 0 500 500;" xml:space="preserve">
<style type="text/css">
	.st0{fill:#23383F;}
</style>
<path class="st0" d="M377.8,0c5.9,3,7.6,8.1,7.5,14.5c-0.2,22.6-0.1,45.2-0.1,67.8c0,11.1-3.4,14.4-14.5,14.5
	C355,97,339.2,97,323.4,97.5c-17.7,0.6-26.7,9-27.4,26.8c-0.7,18.2-0.2,36.4-0.2,55.3c1.9,0,3.6,0,5.3,0c22.6,0,45.2,0,67.8,0
	c9.4,0,13,3.6,13,12.9c0,25.7,0,51.4-0.1,77.1c0,9.1-3.6,12.6-12.8,12.6c-22.5,0-44.9,0-67.4,0c-1.8,0-3.5,0-6.1,0
	c0,2.2,0,4.1,0,5.9c0,65.7,0,131.5,0,197.2c0,11.3-3.2,14.4-14.5,14.4c-25.7,0-51.4,0-77.1,0c-10.8,0-14-3.1-14-13.9
	c0-65.6,0-131.1,0-196.7c0-2.1,0-4.2,0-7c-2.2,0-3.9,0-5.6,0c-18.9,0-37.7,0-56.6,0c-9.6,0-13.3-3.7-13.3-13.2
	c-0.1-25.4-0.1-50.8,0-76.1c0-9.5,3.9-13.2,13.4-13.2c18.7,0,37.4,0,56.1,0c1.8,0,3.6,0,6,0c0-2,0-3.8,0-5.5
	c0.1-20.5-0.6-41,0.5-61.5c1.6-32.8,12.6-61.9,37.7-84.4C246.3,12.2,267.9,4,291.7,1c1.4-0.2,2.7-0.7,4.1-1C323.1,0,350.5,0,377.8,0
	z"/>
</svg>
