<?xml version="1.0" encoding="utf-8"?>
<!-- Generator: Adobe Illustrator 22.0.1, SVG Export Plug-In . SVG Version: 6.00 Build 0)  -->
<svg version="1.1" id="Capa_1" xmlns="http://www.w3.org/2000/svg" xmlns:xlink="http://www.w3.org/1999/xlink" x="0px" y="0px"
	 viewBox="0 0 512 512" style="enable-background:new 0 0 512 512;" xml:space="preserve">
<style type="text/css">
	.st0{fill:#E6E6E7;}
</style>
<g>
	<path class="st0" d="M439,414.5c0,18.3-0.1,36.7,0.1,55c0,3.1-0.9,4.7-3.7,6.1c-24.6,12.3-50.9,19.3-77.7,24.6
		c-37.5,7.4-75.5,9.4-113.6,7.7c-54.4-2.4-107.6-12.5-159.6-28.7c-14.1-4.4-11.2-0.8-11.3-15.4c-0.2-33.8-0.4-67.6,0-101.4
		c0.9-78.4,63.7-136.2,135-136.9c32.4-0.3,64.8-0.5,97.2,0.1c37.1,0.7,68.6,15.1,94.6,41.5c21.7,22.2,34.5,48.9,37.9,79.7
		c1.5,13.8,1,27.8,1.2,41.6C439.1,397.1,439,405.8,439,414.5z M256.1,471.3c1-0.9,1.6-1.2,1.9-1.7c6.1-8.8,12.2-17.7,18.1-26.6
		c0.7-1.1,1.1-2.6,1-4c-0.8-13.1-1.6-26.1-2.5-39.2c-2.1-29.7-4.3-59.5-6.2-89.2c-0.7-10.9-0.5-10.9-11.6-11
		c-10.6-0.1-10.6-0.1-11.3,10.4c-2.7,40.5-5.4,80.9-8.2,121.4c-0.5,6.6,0.3,12.3,4.5,17.7c3.4,4.3,5.9,9.3,8.9,14
		C252.4,465.7,254.2,468.4,256.1,471.3z M257,295.5c1.9,0,3.8-0.2,5.7,0c4.2,0.6,6.4-0.9,8.1-5c4.7-11,10-21.7,15.1-32.5
		c2.5-5.4,0.2-9.7-5.6-9.8c-15.6-0.2-31.2-0.2-46.8,0c-6,0.1-8.2,4.4-5.6,9.8c4.4,9.2,9.3,18.2,13.2,27.7
		C244.1,293.3,248,298.1,257,295.5z"/>
	<path class="st0" d="M256,3.6c58.2-0.8,108.3,47.8,107.3,109.3c-0.9,58-49.5,105.4-107.9,105.2c-58.8-0.3-108.7-49.3-106.5-111.2
		C150.9,48.5,199.7,2.9,256,3.6z"/>
</g>
</svg>
