<?xml version="1.0" encoding="utf-8"?>
<!-- Generator: Adobe Illustrator 22.0.1, SVG Export Plug-In . SVG Version: 6.00 Build 0)  -->
<svg version="1.1" id="Capa_1" xmlns="http://www.w3.org/2000/svg" xmlns:xlink="http://www.w3.org/1999/xlink" x="0px" y="0px"
	 viewBox="0 0 512 512" style="enable-background:new 0 0 512 512;" xml:space="preserve">
<style type="text/css">
	.st0{fill:#FFFFFF;}
</style>
<g>
	<path class="st0" d="M372.2,34c4.3,0.7,8.7,1.2,12.9,2.1c9.3,2,17.9,5.5,25.2,11.8c8.4,7.3,12.7,16.3,11.6,27.6
		c-0.1,0.7-0.2,1.7-0.7,2.1c-7.2,6.8-14.5,13.4-21.9,20.4c-0.4-2.4-0.6-4.5-1.1-6.6c-3.4-14.9-16.2-25.2-31.4-25.2
		c-12.3-0.1-24.6,0-36.9,0c-87.2,0-174.5,0-261.7,0c-15.9,0-28.9,10.3-32.2,25.6c-0.5,2.4-0.7,4.9-0.7,7.4c0,104.6,0,209.2,0,313.9
		c0,18.7,14.2,32.9,32.8,32.9c99.4,0,198.7,0,298.1,0c18.7,0,32.9-14.1,32.9-32.8c0-49.4,0-98.8-0.1-148.2c0-3.1,0.8-5.3,2.9-7.5
		c9.1-9.7,18-19.5,26.9-29.2c0.6-0.7,1.1-1.4,1.7-2.2c0.2,0.1,0.4,0.2,0.7,0.4c0,0.8,0,1.6,0,2.5c0,61.3,0,122.7,0,184
		c0,32.9-22.6,59.3-55.1,64.4c-1.4,0.2-2.9,0.5-4.3,0.7c-103.1,0-206.2,0-309.3,0c-0.6-0.1-1.1-0.3-1.7-0.4
		c-26.9-3.7-45-18.3-54.3-43.7c-1.7-4.5-2.2-9.5-3.3-14.2C3,310.6,3,201.4,3,92.3c0.2-0.6,0.4-1.1,0.5-1.7
		c3.9-26,18.1-43.7,42.6-52.9c5.3-2,11.2-2.5,16.8-3.8C166,34,269.1,34,372.2,34z"/>
	<path class="st0" d="M509,117.1c-1.1,4.7-4.1,8.1-7.5,11.5c-80,79.9-159.9,159.8-239.8,239.8c-4.5,4.5-9.5,6.7-15.8,5.3
		c-3.5-0.8-6.2-2.7-8.7-5.2c-25.9-26.1-51.9-52.3-77.8-78.4c-19.7-19.8-39.4-39.7-59.1-59.6c-7.6-7.6-7.5-16.7,0.1-24.3
		c10.4-10.4,20.8-20.8,31.2-31.2c7.5-7.5,16.6-7.5,24.1,0.1c30.6,30.8,61.1,61.5,91.7,92.3c0.7,0.7,1.3,1.4,2.9,3.1
		c0.7-1.2,1-2.4,1.8-3.2C317.2,202,382.5,136.8,447.7,71.5c4.4-4.4,9.5-7.1,15.7-5.4c2.7,0.7,5.6,2.2,7.6,4.1
		c11.3,11,22.4,22.1,33.4,33.4c2,2.1,3.1,5.2,4.5,7.9C509,113.3,509,115.2,509,117.1z"/>
</g>
</svg>
