<?xml version="1.0" encoding="utf-8"?>
<!-- Generator: Adobe Illustrator 22.0.1, SVG Export Plug-In . SVG Version: 6.00 Build 0)  -->
<svg version="1.1" id="Capa_1" xmlns="http://www.w3.org/2000/svg" xmlns:xlink="http://www.w3.org/1999/xlink" x="0px" y="0px"
	 viewBox="0 0 512 512" style="enable-background:new 0 0 512 512;" xml:space="preserve">
<style type="text/css">
	.st0{display:none;fill:#FFFFFF;}
	.st1{fill:#FFFFFF;}
</style>
<path class="st0" d="M442.2,151.3V34.9c0-19.3-15.6-34.9-34.9-34.9c-19.3,0-34.9,15.6-34.9,34.9v8.9L193.8,97.4L23.3,116.4
	C10.4,116.4,0,126.8,0,139.6v162.9c0,12.8,10.4,23.3,23.3,23.3l79.2,8.8l37.4,168.3l0.2,0c1.2,5.2,5.6,9.1,11.1,9.1h93.1
	c6.4,0,11.6-5.2,11.6-11.6c0-0.9-0.3-1.7-0.5-2.5l0.2,0l-32-144.1l148.7,44.6v8.9c0,19.3,15.6,34.9,34.9,34.9
	c19.3,0,34.9-15.6,34.9-34.9V290.9c38.5,0,69.8-31.3,69.8-69.8C512,182.5,480.7,151.3,442.2,151.3 M23.3,302.6V256h58.2
	c6.4,0,11.6-5.2,11.6-11.6c0-6.4-5.2-11.6-11.6-11.6H23.3v-23.3h34.9c6.4,0,11.6-5.2,11.6-11.6c0-6.4-5.2-11.6-11.6-11.6H23.3v-46.6
	l162.9-18.1v199.1L23.3,302.6z M150.3,442.2L127,337.4l66.8,7.4l4.4,1.3l21.3,96.1H150.3z M224.7,465.4l5.2,23.3h-69.3l-5.1-23.3
	H224.7z M372.4,374l-162.9-48.9V117l162.9-48.9V374z M418.9,407.3c0,6.4-5.2,11.6-11.6,11.6c-6.4,0-11.6-5.2-11.6-11.6V34.9
	c0-6.4,5.2-11.6,11.6-11.6c6.4,0,11.6,5.2,11.6,11.6V407.3z M442.2,267.6v-93.1c25.7,0,46.5,20.8,46.5,46.5
	C488.7,246.8,467.9,267.6,442.2,267.6"/>
<path class="st1" d="M264.1,337.9c0,0-7.3-1.7-15.8-6.9c-11.5-7-25.2-20.5-25.2-44.7c0-36.9,16.8-49.9,23.3-58.8
	c0,0,13.4-11.5,4.4-48.5c14.9-20.3,17.7-56.2,1.5-94.1C242.2,61,233.3,48,219.6,40.4c-10-5.6-21.5-7.6-32.6-7.6
	c-20.7,0-40.3,7.2-48.1,12.2C116,55,100.7,64.3,86.2,99.7c-11.7,28.7,2.4,61.9,9.7,78.1c-8.9,37,3.5,49.8,3.5,49.8
	c6.5,9,23.3,22,23.3,58.8c0,42-41,51.6-41,51.6c-26,9.2-80.3,28-80.3,88.5c0,0,0,10.1,10.1,10.1h322.9c10.1,0,10.1-10.1,10.1-10.1
	C344.5,365.8,290.2,347.1,264.1,337.9z M22.3,416.3c5-34.5,35.7-48.5,65.3-59c19.8-5.1,55.3-26,55.3-70.9
	c0-38.5-15.8-57.2-24.4-67.3c-1.1-1.3-2-2.4-2.8-3.4c-0.3-0.3-0.5-0.6-0.7-0.9c-0.7-1.4-4.7-10.4,0.5-32.2c1-4.4,0.6-9-1.2-13.1
	c-5-11-18.3-40.4-9.4-62.1c12-29.5,22.7-35.3,42.1-43.8c1-0.4,1.9-0.9,2.8-1.5c4.9-3.2,20.8-9,37.2-9c9,0,16.7,1.7,22.8,5.1
	c7.3,4,14.1,11.5,24.1,34.8c14,32.9,10.5,61,0.8,74.3c-3.5,4.8-4.7,10.9-3.4,16.7c4.9,20.3,1.3,28.5,0.5,29.9
	c-0.6,0.6-1.2,1.3-1.7,2c-0.8,1.1-1.7,2.2-2.8,3.4c-8.5,10-24.4,28.8-24.4,67.3c0,37.5,24.8,58.2,44.5,67c3.9,1.8,7.6,3,10.9,3.9
	c29.3,10.4,60.3,24.4,65.3,59H22.3z M421.9,353.6H402c-0.7,2.8-1.9,5.4-3.5,7.6c12.8,7.9,22.6,18.7,25.7,34.9h-63.8
	c1.8,6.2,3.1,12.9,3.7,20.2h72.1c9.2,0,9.2-9.1,9.2-9.1C445.4,382.5,435.2,365.6,421.9,353.6z M405,341.6c-1.2-0.7-2.4-1.4-3.6-2
	c0.2,0.6,0.4,1.3,0.6,2H405z M367,347.2c7.2,2.5,14.3,5.2,20.9,8.4c1.9-2.1,3-4.9,3-7.9c0-6.6-5.4-12-12-12
	C372.5,335.7,367.2,340.8,367,347.2z M368.2,326.4c-9.6-3.5-33.4-15-33.4-45.2c0-33.2,17.9-44.9,23.8-53c0,0,3.7-3.1,5.6-11.4
	c1.6-6.8,2.1-17.2-1.6-32.3c13.6-18.2,16.8-50.5,2-84.7c-9.3-21.4-20.6-33.2-33.1-40c-9.2-5-19.6-6.9-29.7-6.9
	c-15.1,0-29.4,4.1-38.3,8.1c2.6,5,5,10.3,7.4,15.9c0.3,0.8,0.6,1.6,0.9,2.4c5.7-2.5,17.2-6.3,29.9-6.3c8,0,14.7,1.5,20,4.4
	c6.3,3.4,15.6,10.3,24.2,30.3c12.3,28.5,9,53,0.4,64.7c-3.6,4.8-4.8,11-3.4,16.8c4.1,16.7,1.5,23.7,0.8,25.1c-0.5,0.6-1,1.2-1.5,1.8
	c-0.4,0.5-1.8,2-2.8,3.1c-1.1,1.1-2.2,2.4-3.4,3.7c-8.9,10.1-21.5,27.2-21.5,58c0,34.3,22.5,53.5,40.9,61.9
	C356.9,335.7,361.7,329.6,368.2,326.4z"/>
<g>
	<path class="st1" d="M379,335.7c-6.5,0-11.7,5.1-12,11.5c0,0.1,0,0.3,0,0.5c0,6.6,5.4,12,12,12c3.6,0,6.8-1.6,9-4.1
		c1.9-2.1,3-4.9,3-7.9C390.9,341,385.5,335.7,379,335.7z"/>
	<path class="st1" d="M379,216c-5,0-9.9,0.3-14.8,0.8c-9.7,1.1-19.1,3.2-28.1,6.3c-46.6,16.1-81.3,57.5-87.7,107.9
		c-0.7,5.4-1,11-1,16.6c0,1.9,0,3.8,0.1,5.8c1,23,7.9,44.5,19.2,62.9c4.4,7.2,9.5,14,15.2,20.2c24.1,26.3,58.7,42.8,97.1,42.8
		c72.7,0,131.6-58.9,131.6-131.6C510.6,274.9,451.6,216,379,216z M432.8,353.6h-10.9H402c-0.7,2.8-1.9,5.4-3.5,7.6
		c-4.3,6.2-11.4,10.3-19.6,10.3c-13.2,0-23.9-10.7-23.9-23.9c0-1.6,0.1-3.1,0.5-4.6c1.4-7.3,6.2-13.4,12.7-16.7
		c1.5-0.8,3.1-1.4,4.8-1.8v-66.7c0-3.3,2.7-6,6-6c3.3,0,6,2.7,6,6v66.7c7.7,2,13.9,7.7,16.5,15.1c0.2,0.6,0.4,1.3,0.6,2h3h27.8
		c3.3,0,6,2.7,6,6C438.8,350.9,436.1,353.6,432.8,353.6z"/>
</g>
</svg>
