<svg xmlns="http://www.w3.org/2000/svg" viewBox="0 0 1080 1080"><defs><style>.a{fill:#fff;}</style></defs><title>Mesa de trabajo 1</title><path class="a" d="M93,1046.88a2.23,2.23,0,0,1,1.25-2.46c23.11-11.94,38.64-31.23,50.6-53.52,22.49-41.95,28.09-86.33,16.93-132.6a127.17,127.17,0,0,0-29.62-55.7c-40-44.72-72.55-94.23-94.41-150.35C20.79,608.77,11.57,563.76,11.94,517c.19-24.07-.56-48.14,1.23-72.21,8-108,49.78-200.25,128.81-274.95,47.48-44.87,103-76.62,164-99C352.76,53.59,401.06,43,450.53,37.36A717.25,717.25,0,0,1,554,32.71c83.74,2.6,165,18.2,242.27,50.92,54.45,23,104.27,54.5,146.31,96.07,47.72,47.19,87.5,100.32,107,166.18,11,37.16,17.46,75,18.08,113.74.41,25.49.66,51,0,76.49a404.84,404.84,0,0,1-50.72,186.81c-41,74.52-100.44,130.7-174,172.47-52.46,29.79-108.73,49.3-167.66,61.48-8.63,1.78-9.57,1.31-14.64-6.28-7.11-10.64-10.5-22.52-11.41-35.16-1.31-18.23.6-36.18,4.47-54,2.73-12.62,10-20.71,22.32-24.22,15-4.3,30-8.26,45-12.55a231.51,231.51,0,0,0,29.65-10.39c8.53-3.76,14.25-10,17.8-18.46,5.17-12.36,6.93-25.26,4.41-38.31-2.21-11.48-.48-21,7.9-29.66,6.85-7.07,5.68-20.39-1.52-28.71-4.08-4.71-4.08-4.72,1.05-7.82.73-.44,1.51-.79,2.25-1.2,13.1-7.23,15-11.22,12-26.16a150.15,150.15,0,0,0-4.31-16.42c-2.66-8.19-.45-14.34,6.69-19,4.49-3,8.8-6.19,13.17-9.34A45,45,0,0,0,819,611.3c5-6.13,5.3-11.46.41-17.71-7-8.92-14.25-17.63-21.55-26.29-10.79-12.78-20.95-26-30.6-39.7-4.34-6.15-5.44-12.43-2.5-19.21,10.12-23.33,5.26-45.08-7.52-65.56-10.91-17.47-15-37.17-20.27-56.53-1.16-4.26.27-7.13,4.06-9.1,6.53-3.39,13.07-6.79,19.56-10.26,12.87-6.88,14-13.28,4.57-24.74-4.77-5.77-10.88-9.89-17.16-13.77-14.8-9.15-31-15.29-47.19-21.25-42-15.41-85.36-24.58-129.63-30.14-29.28-3.68-58.61-5.7-88.13-4.92a156.7,156.7,0,0,0-43.42,7.2c-38.47,12.19-73.09,31.15-101.12,60.36-33.14,34.55-57,74.71-67,122.07-5.51,26.08-4.37,52.43-.39,78.62,2.12,14,5.06,27.86,7.92,41.73,7.3,35.38,24.44,66.26,44.64,95.58,8,11.62,18.71,20.51,32.36,25.18A19.13,19.13,0,0,1,368,714c2.71,6.23,5.81,12.3,9.06,18.27,4.89,9,10.26,17.7,19,23.57,2.67,1.8,3.23,4.37,3.77,7.22,1.86,9.8,1.75,19.77,2.29,29.64,1.76,32.63.12,65.1-6.93,97.16C381,954.79,342.19,998,280,1020.7c-27.3,10-55.54,15.82-84.22,19.67-31.19,4.19-62.58,5.87-94,7C98.83,1047.47,95.73,1048,93,1046.88Z"/></svg>