<?xml version="1.0" encoding="utf-8"?>
<!-- Generator: Adobe Illustrator 22.0.1, SVG Export Plug-In . SVG Version: 6.00 Build 0)  -->
<svg version="1.1" id="Capa_1" xmlns="http://www.w3.org/2000/svg" xmlns:xlink="http://www.w3.org/1999/xlink" x="0px" y="0px"
	 viewBox="0 0 512 512" style="enable-background:new 0 0 512 512;" xml:space="preserve">
<style type="text/css">
	.st0{fill:#E6E6E7;}
</style>
<path class="st0" d="M362.7,208.2V106.7C362.7,47.8,314.9,0,256,0c-58.9,0-106.7,47.8-106.7,106.7v101.6c-39,31.3-64,79.2-64,133.1
	C85.3,435.6,161.7,512,256,512s170.7-76.4,170.7-170.7C426.7,287.5,401.6,239.5,362.7,208.2z M192,106.7c0-35.3,28.7-64,64-64
	s64,28.7,64,64v76.5c-19.8-8-41.3-12.5-64-12.5s-44.2,4.5-64,12.5C192,183.2,192,106.7,192,106.7z M256,469.3
	c-70.6,0-128-57.4-128-128s57.4-128,128-128s128,57.4,128,128S326.6,469.3,256,469.3z M298.7,341.3c0,23.6-19.1,42.7-42.7,42.7
	s-42.7-19.1-42.7-42.7s19.1-42.7,42.7-42.7S298.7,317.8,298.7,341.3z"/>
</svg>
