<svg xmlns="http://www.w3.org/2000/svg" viewBox="0 0 1182.12 293.49"><title>Mesa de trabajo 1</title><path d="M17.84,279.14a84.25,84.25,0,0,0,16.25,8.2c19,6.86,38.53,7.55,58.27,4.16C105.2,289.3,116.9,284.58,127,276c18.18-15.54,23-56.28-11.55-70a65.05,65.05,0,0,0-12-3.94c-14.74-2.71-29.58-4.92-44.33-7.62a43,43,0,0,1-11.4-4c-3.17-1.59-3.92-4.73-2.39-8.08,1.42-3.15,3.72-3.31,6.94-2.62,16.32,3.51,32.42,2.58,47.77-4.21,18.51-8.2,30.28-22,32.24-42.66,1.46-15.4.06-30.42-11-43.2,2.37-2.2,4.4-4.35,6.7-6.16,2.7-2.12,5.71-3.84,8.45-5.92,6.79-5.15,6.81-12.36.13-17.68-6.83-5.45-15.8-5-21.28,1.82-3.78,4.68-6.66,10.09-10,15.35a13.91,13.91,0,0,1-1.45-.58c-17.19-8.86-35.35-10.23-53.85-5.9-21,4.9-36.77,16.5-41.51,38.52C3.47,131.82,7,152.77,26.41,168.89c-8,5.65-15,11.78-16,22.16-1,10.56,3.44,18.25,13.17,23.47C10.24,221.3,2.38,231.19,0,245.16v6.58C2.24,263.29,7.82,272.8,17.84,279.14ZM49.91,106.52C53.07,98,60,93.49,69.1,93.34S85.38,97.26,89,105.64a48.11,48.11,0,0,1-.16,39.1c-3.35,7.79-10,11.84-18.61,12-8.72.14-15.84-3.6-19.26-11.6-2.7-6.29-3.65-13.32-5.28-19.66C47.15,118.52,47.79,112.25,49.91,106.52ZM46.48,228.76c5.26-5,11-7.79,18.59-5.87,7.08,1.8,14.46,2.53,21.42,4.67,7.64,2.35,13.85,6.79,14.24,15.93.41,9.44-4.4,15.94-12.64,19.44-5.62,2.38-11.86,3.32-18.5,5.08-6.44-2-13.38-3.13-19.26-6.24C37.16,254.8,35.66,239,46.48,228.76ZM1000.3,121.21c6.38,45.4-15.58,76.62-57.93,88.2-7.32,2-10.29-.25-9.57-7.9.86-9.08.24-9.95,9.32-11.88a32.65,32.65,0,0,0,5.77-1.87c1.26-.53,3.14-1.26,3.39-2.24,1.48-5.74,2.55-11.59,3.61-17.39.42-2.11,1.39-4.29,1.13-6.31-.34-2.7.1-4.55,2.47-5.92,2.89-1.67,2.94-3.65.69-6-1.61-1.7-3-3.64-4.47-5.43-2.25-2.68-3.82-5.23-2.65-9.23.64-2.21-.64-5.09-1.39-7.57s-2.39-4.83-2.8-7.37a6,6,0,0,1,1.88-4.78c3.4-2.65,3.6-3.92-.09-6.39a27.38,27.38,0,0,0-5-2.61c-10.66-4.32-21.86-5.85-33.25-7-22.4-2.29-46.52,21.4-38.42,48.24,2,6.57,4.65,13.6,9.08,18.55,3.22,3.59,6.5,7.22,9.48,11.06a5.07,5.07,0,0,1,1.33,2.78c-.24,6.84.06,13.83-1.21,20.5-1.85,9.71-8.19,16.32-17.4,19.94-9.88,3.88-20.3,4.29-31.83,4.89,10.93-9.22,15-21,10.91-32.16-1.57-4.24-4.72-8-7.6-11.65-19-24.06-21.06-50.51-9.85-78,7.68-18.87,22.93-30.62,41.94-37,30.45-10.26,60.41-8.84,88.61,7.17C984.79,84.12,997.26,99.54,1000.3,121.21ZM380.85,60.79c-33.18-1.81-63.21,20.78-68.42,53.05-2,12.67-1.29,25.92-.64,38.85.86,17.08,8.52,31.21,21.92,41.94,16.08,12.88,34.9,16.91,55,16.1,15.14-.6,29.48-4,41.5-13.87,9.52-7.81,10.53-16.11,3.71-26.42C429,163,422.67,161,414.54,164.6c-4.28,1.9-8.34,4.32-12.68,6.06-11.07,4.45-22.25,5-33.13-.57a21.91,21.91,0,0,1-12.15-22.79c1.91,0,3.91,0,5.9,0,19.54-.21,39.11-.08,58.64-.79,9.43-.34,15.13-5.9,17.4-15.09a54.65,54.65,0,0,0-1.51-31C429.3,77.41,407.75,62.25,380.85,60.79ZM398,115.23c-.41,2.86-1.5,5.25-4.85,5.27-12.16.06-24.32,0-36.67,0-2.24-19.9,13-31.33,30.65-23.69C394.67,100.12,399.09,107.58,398,115.23ZM292,79.3c-.18,11.58-.06,23.16-.06,34.74h-.55c0,13.29,1.29,26.73-.27,39.83-3.14,26.32-18.6,44.13-43.16,53s-47,3.6-66.3-13.59c-14.26-12.68-21.52-28.84-21.38-48.18.14-20.65,0-41.3,0-62,0-11.86,3.93-16.82,15.65-19.58a28.49,28.49,0,0,1,18.37,1.57c7,3.07,11,7.78,10.83,16.23-.43,21.27-.19,42.56-.12,63.83,0,11.09,5.87,20.07,14.89,23.37,12.88,4.72,26.88-6.25,27-21.51.19-21.12.06-42.25.06-63.37,0-12.82,4.31-18.22,16.86-20.4,7.07-1.23,14.06-.58,20.49,3C289.38,69.17,292.09,73.27,292,79.3Zm379.65,109c-.09,11.57-7.16,19.26-18.33,19.4-12.33.16-24.7.76-36.81-2.67-19.21-5.44-30.47-18.67-32.37-38.53-.43-4.5-.65-9.05-.66-13.57-.05-44.26.26-88.52-.21-132.77-.13-12.7,5.11-17.41,16.61-19.67,5.14-1,11-.34,16.14,1,9.25,2.38,12.27,7.15,12.27,16.68,0,14.68,0,29.35,0,44.71,10.68,0,20.67,0,30.65,0,6.36,0,10,2,11.39,8.15a42.1,42.1,0,0,1,.42,16c-1.22,6.85-5.07,9.19-12.07,9.22-10,0-20,0-30.39,0,0,4.26,0,8,0,11.68,0,16,0,31.9,0,47.85,0,9.56,2.81,12.3,12.3,12.37,4.22,0,8.44-.09,12.66.05C664.4,168.62,671.74,176.68,671.65,188.3ZM563.53,169.24c-1.35,19.56-14.14,34.3-34.64,39.15-6.95,1.65-14.18,2.12-21.27,3.13-11.43-.77-22.57-2.18-33.07-6.67a65.27,65.27,0,0,1-12.25-6.77c-13.24-9.47-10.55-22-2.66-31.68,3.8-4.67,8.53-5.4,13.88-2.58,3.31,1.75,6.4,3.9,9.64,5.78a45.43,45.43,0,0,0,32.56,5.3c4.59-.9,8.42-3.06,9-8.22s-2.61-8.4-7-10c-7.9-2.9-16-5.23-24-7.82-2.83-.91-5.65-1.83-8.43-2.84-28.12-10.16-32.53-33.54-25.23-55.66,5.31-16.08,17.73-24.59,33.72-27.89a91.09,91.09,0,0,1,50.31,3.78c.88.32,1.73.72,2.58,1.11,15.38,7.1,18.56,16.11,7.2,32.17-3.87,5.45-8.61,6.44-14.94,4-4.37-1.66-8.59-3.75-13-5.35-6.87-2.5-14-3.45-21.17-1.58a17.16,17.16,0,0,0-5.5,2.46c-5.14,3.66-5,9.58.64,12.38,4.43,2.19,9.33,3.46,14.08,5,7,2.24,14.18,3.9,21,6.57C556.36,131.41,565.14,145.88,563.53,169.24Zm567.36,12.89c5.27,7.68,5.2,12.81-1.63,19a48.34,48.34,0,0,1-13.73,8.55c-6.88,2.85-11.56.76-15.52-5.51q-12.39-19.62-24.75-39.25c-.82-1.3-1.69-2.57-3-4.56-9.3,14.9-18.21,29.2-27.14,43.49-4.19,6.7-9.55,8.89-16.69,5.49a56.2,56.2,0,0,1-14.08-9.75c-5.3-5-5.34-9.82-1.22-16,10.27-15.31,20.55-30.62,31-45.78,2-2.92,2-4.9,0-7.77-9.47-13.58-18.73-27.32-28-41-5-7.42-4.73-11.8,1.5-18.26,4.76-4.93,10.4-8.5,17.3-9.63,5.5-.9,9.51.86,12.44,6,8,14,16.31,27.72,24.89,42.2,1.14-1.77,2.07-3.11,2.91-4.51q11.23-18.66,22.46-37.33c3.83-6.34,8.31-8,15.48-5.6a32.87,32.87,0,0,1,16,11c4.36,5.54,4.53,9,.59,14.87q-14.57,21.56-29.34,43c-1.81,2.6-1.87,4.28,0,7C1110.64,152.44,1120.72,167.32,1130.89,182.13ZM819.51,85.07q-15.57,38.07-31.17,76.14c-5.25,12.83-10.84,25.54-15.58,38.56-2.71,7.43-7.82,10.73-15,11.32a49,49,0,0,1-13-.9c-4.33-.81-7.31-3.58-9.09-7.92q-24.06-58.85-48.32-117.61c-3.37-8.21-2.36-13.07,5.22-17.5a50,50,0,0,1,16.91-6c7-1.11,10.24,1.69,12.67,8.35q14.52,40,29,79.93c.63,1.74,1.34,3.45,2.36,6.06L782.2,77.35q1.37-3.72,2.75-7.45c2.92-7.84,7.55-10.73,15.65-8.46a50.16,50.16,0,0,1,14.27,6.68C821.81,72.83,822.69,77.27,819.51,85.07Zm362.61-27.59a23.39,23.39,0,1,1-23.56-23.57A23.62,23.62,0,0,1,1182.12,57.48Z" style="fill:#fff"/></svg>