<?xml version="1.0" encoding="utf-8"?>
<!-- Generator: Adobe Illustrator 22.0.1, SVG Export Plug-In . SVG Version: 6.00 Build 0)  -->
<svg version="1.1" id="Capa_1" xmlns="http://www.w3.org/2000/svg" xmlns:xlink="http://www.w3.org/1999/xlink" x="0px" y="0px"
	 viewBox="0 0 512 1174" style="enable-background:new 0 0 512 1174;" xml:space="preserve">
<style type="text/css">
	.st0{display:none;}
	.st1{display:inline;}
	.st2{fill:#FFFFFF;}
	.st3{display:inline;fill:#FFFFFF;}
</style>
<g class="st0">
	<g class="st1">
		<path class="st2" d="M350.3,529.1c7.9-87.6-22.7-176.9-86.9-241.1c-3.9-3.9-10.8-3.9-14.7,0c-64.2,64.2-94.8,153.4-86.9,241.1
			c-22.2,23.9-34.4,54.7-34.4,87.5c0,33.1,12.6,64.6,35.5,88.6c5.6,5.9,19.9,3.2,17.6-9.8c-1.2-6.8-2.7-13.4-2.7-19.9
			c0-16.2,4.9-31.6,14-44.6c1.5,0.8,3.2,1.3,5,1.3h118.5c1.8,0,3.5-0.5,5-1.3c9.1,13,14,28.4,14,44.6c0,6.5-1.7,13-2.7,19.9
			c-2.1,14.4,12.9,14.9,17.6,9.8c22.8-24.1,35.5-55.5,35.5-88.6C384.6,583.8,372.5,552.9,350.3,529.1z M256,310.4
			c18.6,20,33.8,42.5,45.6,66.4h-91.1C222.2,352.8,237.4,330.4,256,310.4L256,310.4z M158,661.4c-6.4-13.9-9.7-29.1-9.7-44.8
			c0-21.2,6.1-41.5,17.5-58.9c0.1,0.8,11,42.5,15.2,53.2C168.5,625.3,160.6,642.7,158,661.4L158,661.4z M308.4,611.3H203.6
			c-29.4-69-29.1-146.1-2.4-213.8h109.6C337.5,465.2,337.8,542.3,308.4,611.3z M331.1,610.9c5.8-14.9,15.1-52.6,15.2-53.2
			c11.4,17.3,17.5,37.6,17.5,58.9c0,15.7-3.4,30.9-9.7,44.8C351.4,642.7,343.5,625.3,331.1,610.9L331.1,610.9z"/>
		<path class="st2" d="M213.9,649.6c-5.8,0-10.4,4.7-10.4,10.4v52.3c0,5.8,4.7,10.4,10.4,10.4s10.4-4.7,10.4-10.4V660
			C224.3,654.2,219.6,649.6,213.9,649.6z"/>
		<path class="st2" d="M256,649.6c-2.9,0-5.5,1.2-7.4,3.1c0,0,0,0-0.1,0.1c-1.2,1.2-2.1,2.8-2.6,4.6c-0.2,0.9-0.4,1.8-0.4,2.8v104.5
			c0,0.8,0.1,1.6,0.3,2.4c1.1,4.6,5.2,8,10.1,8s9-3.4,10.1-8c0.2-0.8,0.3-1.6,0.3-2.4V660c0-1-0.1-1.9-0.4-2.8
			C264.8,652.8,260.8,649.6,256,649.6z"/>
		<path class="st2" d="M298.1,649.6c-5.8,0-10.4,4.7-10.4,10.4v52.3c0,5.8,4.7,10.4,10.4,10.4s10.4-4.7,10.4-10.4V660
			C308.6,654.2,303.9,649.6,298.1,649.6z"/>
	</g>
</g>
<g class="st0">
	<path class="st3" d="M213.5,517.8c4.9,18.8,23.3,40.9,23.3,40.9h12c-4.4-18-7.1-62.5-7.1-62.5c-2.4-41.3,14.3-44.5,14.3-44.5V426
		c-0.1,0-0.2,0-0.3,0c-20.6,0-37.2-16.7-37.2-37.2c0-20.6,16.7-37.2,37.2-37.2c0.1,0,0.2,0,0.3,0l0-72
		c-82.9,75.9-57.3,176.1-57.3,176.1c-28.7,33.1-28.9,99.7-28.9,99.7C186.9,529.2,213.5,517.8,213.5,517.8z"/>
	<path class="st3" d="M256.3,351.6c20.6,0,37.2,16.7,37.2,37.2c0,20.6-16.7,37.2-37.2,37.2c-0.1,0-0.2,0-0.3,0v25.6
		c0,0,16.8,3.2,14.3,44.5c0,0-2.7,44.5-7.1,62.5h12c0,0,18.4-22,23.3-40.9c0,0,26.6,11.4,43.7,37.6c0,0-0.2-66.6-28.9-99.7
		c0,0,25.6-100.2-57.3-176.1l0,72C256.1,351.6,256.2,351.6,256.3,351.6z"/>
	<path class="st3" d="M235.9,409.5c11.3,11.3,29.6,11.3,40.9,0c11.3-11.3,11.3-29.6,0-40.9c-11.3-11.3-29.6-11.3-40.9,0
		C224.7,379.9,224.6,398.2,235.9,409.5z"/>
	<path class="st3" d="M255.8,575.3c5.2-20.5,9-53.2,10.2-71.1c3.1-44.6-8.7-45.7-10.3-45.6c-1.6-0.1-13.4,1-10.3,45.6
		c1.3,17.9,5.1,50.7,10.2,71.1v0.5c0-0.1,0.1-0.2,0.1-0.3c0,0.1,0.1,0.2,0.1,0.3L255.8,575.3z"/>
	<path class="st3" d="M238.4,567.6l13.5,212.8l-4.1-212.8H238.4z"/>
	<path class="st3" d="M262.9,567.6l-4.1,212.8l13.5-212.8H262.9z"/>
</g>
<g>
	<g>
		<g>
			<path class="st2" d="M86.6,576.5L22.5,690c-0.8,1.4-1.1,2.9-1,4.5l12.8,139.2c0.2,1.8,1,3.5,2.2,4.7c0.5,0.5,1.1,1,1.8,1.3
				c2.3,1.2,5,1.2,7.3,0l115.8-63.6c18.2,19.8,39.4,32.2,62.7,36.5l6.2,63c0.4,4,3.8,7,7.8,6.9l52.7-1.3c2,0,4-0.9,5.4-2.4
				c1.4-1.5,2.1-3.5,2-5.5l-2.8-65.6c10.9-5.1,36-19.7,60.7-55.5l120.1,55.9c2.3,1.1,5.1,0.9,7.2-0.4c2.2-1.4,3.5-3.7,3.6-6.3
				l3.5-139.7c0-1.6-0.4-3.2-1.4-4.6l-73.7-105.8c2.6-36.4,2.7-75.8,0.3-117.2C401.9,195.8,320.1,80.6,272.6,33.1
				C257,17.4,246.5,10.7,246,10.4c-2.6-1.7-6-1.6-8.5,0.2c-6.5,4.6-160,117.1-160,463C77.6,474.1,78.3,519.8,86.6,576.5z M191.5,488
				c-30.1-30.1-30.1-78.9,0-109c30.1-30.1,78.9-30.1,109,0c30.1,30.1,30.1,78.9,0,109S221.6,518.1,191.5,488z"/>
		</g>
	</g>
	<g>
		<path class="st2" d="M283.2,930.2v1268.5c0,7.6-6.2,13.8-13.8,13.8h-13.7c-7.6,0-13.8-6.2-13.8-13.8l0-1268.5
			c0-7.6,6.2-13.8,13.8-13.8h13.7C277,916.4,283.2,922.6,283.2,930.2z"/>
		<path class="st2" d="M354.8,1020.1v1268.5c0,7.6-6.2,13.8-13.8,13.8h-13.7c-7.6,0-13.8-6.2-13.8-13.8l0-1268.5
			c0-7.6,6.2-13.8,13.8-13.8H341C348.6,1006.3,354.8,1012.4,354.8,1020.1z"/>
		<path class="st2" d="M208,1030.5l0,1268.5c0,7.6-6.2,13.8-13.8,13.8h-13.7c-7.6,0-13.8-6.2-13.8-13.8V1030.5
			c0-7.6,6.2-13.8,13.8-13.8h13.7C201.8,1016.7,208,1022.9,208,1030.5z"/>
	</g>
</g>
</svg>
