<?xml version="1.0" encoding="utf-8"?>
<!-- Generator: Adobe Illustrator 24.0.2, SVG Export Plug-In . SVG Version: 6.00 Build 0)  -->
<svg version="1.1" id="Capa_1" xmlns="http://www.w3.org/2000/svg" xmlns:xlink="http://www.w3.org/1999/xlink" x="0px" y="0px"
	 viewBox="0 0 500 500" style="enable-background:new 0 0 500 500;" xml:space="preserve">
<style type="text/css">
	.st0{fill:#23383F;}
</style>
<g>
	<path class="st0" d="M284,192.6c7.8-6.3,14.6-12.3,21.9-17.5c41.5-29.9,104.4-32.2,145.9-5.3c22.8,14.8,37.8,35.6,46.2,61.2
		c1.7,5.1,1.9,10.8,1.9,16.3c0.1,78,0.1,155.9,0.1,233.9c0,8-1.7,9.7-9.6,9.7c-30.6,0-61.1,0-91.7,0c-9.1,0-10.2-1-10.2-10
		c0-60.4,0.1-120.8-0.1-181.2c0-8.3-0.7-16.7-1.8-24.9c-2.8-19.9-13.5-31.1-33.4-34.7c-19.3-3.5-37.7-1.5-52.7,12.8
		c-10.7,10.2-16.6,22.7-16.6,37.9c0.1,63.2,0,126.5,0,189.7c0,9.5-1,10.5-10.3,10.5c-30.6,0-61.1,0-91.7,0c-7.8,0-9.4-1.5-9.4-9.3
		c0-105.3,0-210.6,0-316c0-8,1.6-9.5,9.8-9.5c30.5,0,61,0,91.6,0c8.8,0,10,1.2,10,10.3C284,174.8,284,183.3,284,192.6z"/>
	<path class="st0" d="M111.3,323.6c0,52.6,0,105.1,0,157.7c0,8.3-1.2,9.6-9.5,9.6c-30.9,0-61.8,0-92.7,0c-7.2,0-9.1-1.8-9.1-9.1
		c0-105.5,0-210.9,0-316.4c0-7.5,1.9-9.3,9.5-9.3c30.9,0,61.7,0,92.6,0c7.9,0,9.2,1.4,9.2,9.4C111.3,218.2,111.3,270.9,111.3,323.6z
		"/>
	<path class="st0" d="M55.8,120.2C24.8,120.1-0.4,94.9,0,64.3C0.4,33.3,25.5,8.9,56.5,9.1c30.7,0.2,54.9,25.1,54.8,56.2
		C111.2,95.7,86.3,120.4,55.8,120.2z"/>
</g>
</svg>
