<?xml version="1.0" standalone="no"?>
<!DOCTYPE svg PUBLIC "-//W3C//DTD SVG 20010904//EN"
 "http://www.w3.org/TR/2001/REC-SVG-20010904/DTD/svg10.dtd">
<svg version="1.0" xmlns="http://www.w3.org/2000/svg"
 width="1080.000000pt" height="1080.000000pt" viewBox="0 0 1080.000000 1080.000000"
 preserveAspectRatio="xMidYMid meet">
<metadata>
Created by potrace 1.11, written by Peter Selinger 2001-2013
</metadata>
<g transform="translate(0.000000,1080.000000) scale(0.100000,-0.100000)"
fill="#000000" stroke="none">
<path d="M5138 10475 c-2 -1 -77 -5 -168 -9 -91 -4 -177 -8 -190 -10 -14 -3
-62 -7 -106 -11 -45 -3 -93 -8 -105 -10 -23 -3 -87 -11 -179 -21 -25 -2 -56
-7 -70 -9 -14 -3 -43 -7 -65 -10 -134 -19 -381 -67 -525 -101 -58 -14 -114
-28 -125 -30 -11 -2 -51 -13 -90 -24 -38 -12 -92 -27 -120 -35 -219 -60 -587
-204 -859 -335 -163 -78 -562 -310 -586 -340 -3 -4 -30 -23 -60 -43 -61 -40
-235 -175 -326 -252 -99 -84 -396 -384 -484 -489 -109 -131 -216 -276 -306
-414 -41 -62 -74 -114 -74 -117 0 -3 -17 -33 -38 -67 -38 -63 -162 -306 -194
-383 -119 -283 -214 -590 -262 -850 -17 -90 -46 -267 -51 -315 -3 -30 -8 -66
-10 -80 -5 -32 -13 -148 -21 -280 -13 -232 -6 -875 11 -982 2 -12 6 -49 10
-82 11 -93 18 -137 46 -276 43 -215 105 -418 201 -660 155 -392 429 -861 691
-1186 38 -47 197 -236 252 -299 150 -172 252 -381 294 -598 6 -28 13 -63 15
-76 3 -13 8 -49 11 -80 4 -31 9 -67 11 -81 7 -37 6 -267 -1 -325 -23 -196 -61
-347 -126 -506 -125 -305 -303 -545 -499 -670 -114 -73 -118 -77 -101 -88 8
-5 56 -8 105 -6 196 9 343 16 391 20 28 2 88 7 135 10 47 3 105 8 130 10 25 3
70 7 100 10 30 3 66 8 80 10 14 2 46 6 72 9 250 29 544 95 778 174 738 248
1147 747 1260 1537 6 44 13 91 15 104 20 119 26 546 12 781 -7 119 -9 140 -22
202 -4 15 -29 46 -60 72 -74 64 -116 124 -202 294 -42 81 -82 155 -91 164 -14
17 -43 32 -137 74 -56 24 -153 95 -195 140 -82 90 -266 381 -345 548 -72 152
-133 316 -155 416 -42 189 -43 193 -65 315 -8 44 -17 91 -20 105 -3 14 -8 45
-11 70 -3 25 -8 54 -10 65 -19 98 -26 459 -12 580 8 64 45 252 52 264 3 4 7
18 10 32 7 41 72 219 111 309 122 278 316 554 554 790 135 134 223 205 366
295 76 48 278 157 295 160 3 0 10 3 15 7 11 7 168 68 235 91 113 40 245 71
352 84 120 14 695 6 785 -11 11 -2 53 -7 94 -10 41 -4 86 -8 99 -11 14 -2 48
-6 75 -10 92 -11 323 -47 385 -60 14 -3 41 -8 60 -11 19 -3 43 -7 52 -10 10
-3 30 -7 45 -10 179 -31 603 -156 837 -248 324 -127 488 -230 567 -353 63
-100 31 -147 -165 -248 -121 -62 -146 -80 -150 -112 -2 -10 12 -74 31 -143 19
-69 36 -132 38 -140 22 -87 80 -223 129 -305 121 -205 159 -371 121 -541 -9
-43 -20 -83 -24 -89 -12 -17 -31 -91 -31 -121 0 -16 9 -47 19 -69 25 -54 175
-254 346 -460 203 -246 213 -258 225 -289 27 -72 -20 -136 -189 -256 -57 -41
-112 -87 -123 -104 -24 -39 -20 -84 19 -236 50 -190 37 -235 -86 -309 -39 -23
-73 -46 -77 -52 -3 -6 8 -28 25 -50 39 -48 61 -108 61 -166 0 -50 -18 -91 -67
-148 -49 -57 -67 -130 -58 -230 13 -143 13 -229 0 -290 -28 -130 -91 -238
-170 -288 -78 -49 -260 -111 -580 -197 -259 -70 -311 -91 -363 -149 -25 -27
-61 -91 -68 -120 -18 -78 -23 -101 -29 -136 -3 -22 -8 -53 -10 -70 -2 -16 -7
-55 -10 -85 -9 -68 -9 -272 0 -331 12 -83 36 -164 71 -235 42 -86 81 -133 114
-139 26 -5 189 28 380 77 63 16 123 31 132 33 35 8 228 69 353 112 1084 373
1974 1057 2511 1928 103 167 119 197 209 380 122 250 220 509 280 745 21 83
76 336 81 375 3 28 8 58 10 69 2 10 6 44 9 75 4 31 8 67 10 81 6 37 15 152 21
260 11 198 4 982 -10 1092 -2 18 -7 69 -11 113 -4 44 -9 89 -11 100 -2 11 -7
40 -10 65 -5 36 -31 182 -49 270 -76 376 -231 778 -419 1089 -130 214 -224
342 -441 600 -72 85 -336 356 -431 442 -440 396 -993 721 -1613 945 -273 99
-607 196 -824 240 -10 2 -26 5 -35 8 -9 3 -33 7 -52 10 -19 3 -46 8 -60 11
-68 14 -240 44 -280 49 -25 3 -54 8 -65 10 -11 2 -47 7 -80 10 -33 4 -71 9
-85 11 -24 3 -98 11 -185 20 -52 5 -158 14 -265 21 -85 6 -607 14 -612 9z"/>
</g>
</svg>
