<?xml version="1.0" encoding="utf-8"?>
<!-- Generator: Adobe Illustrator 22.0.1, SVG Export Plug-In . SVG Version: 6.00 Build 0)  -->
<svg version="1.1" id="Capa_1" xmlns="http://www.w3.org/2000/svg" xmlns:xlink="http://www.w3.org/1999/xlink" x="0px" y="0px"
	 viewBox="0 0 398.4 362.4" style="enable-background:new 0 0 398.4 362.4;" xml:space="preserve">
<style type="text/css">
	.st0{display:none;fill:#00a5ab;}
	.st1{fill:#00a5ab;}
</style>
<path class="st0" d="M170.3,54.1c0,4.4-3.6,8-8,8H48.9c-4.4,0-8-3.6-8-8s3.6-8,8-8h113.4C166.7,46.1,170.3,49.7,170.3,54.1z
	 M162.3,159H48.9c-4.4,0-8,3.6-8,8s3.6,8,8,8h113.4c4.4,0,8-3.6,8-8S166.7,159,162.3,159z M162.3,121.4H48.9c-4.4,0-8,3.6-8,8
	s3.6,8,8,8h113.4c4.4,0,8-3.6,8-8S166.7,121.4,162.3,121.4z M48.9,99.7H126c4.4,0,8-3.6,8-8s-3.6-8-8-8H48.9c-4.4,0-8,3.6-8,8
	S44.5,99.7,48.9,99.7z M143.8,247.5c0-11.2,9.1-20.3,20.3-20.3c11.2,0,20.3,9.1,20.3,20.3c0,11.2-9.1,20.3-20.3,20.3
	C152.9,267.8,143.8,258.7,143.8,247.5z M159.8,247.5c0,2.4,1.9,4.3,4.3,4.3c2.4,0,4.3-1.9,4.3-4.3c0-2.4-1.9-4.3-4.3-4.3
	C161.7,243.2,159.8,245.2,159.8,247.5z M392.5,45.2l-64.4,83.2v130.7c0,16-13,29-29,29h-89.6v24.8h25.9c11.4,0,20.6,9.3,20.6,20.6
	v8.2c0,11.4-9.3,20.6-20.6,20.6H92.7c-11.4,0-20.6-9.3-20.6-20.6v-8.2c0-11.4,9.3-20.6,20.6-20.6h25.9v-24.8H29c-16,0-29-13-29-29
	V43.3c0-16,13-29,29-29h270c14,0,25.8,10,28.5,23.2l20.6-26.6c4.6-5.9,11.2-9.7,18.6-10.7c7.4-1,14.8,1.1,20.7,5.6
	c5.9,4.6,9.7,11.2,10.7,18.6C399.1,31.9,397.1,39.3,392.5,45.2z M209.5,328.9h-90.8H92.7c-2.5,0-4.6,2.1-4.6,4.6v8.2
	c0,2.5,2.1,4.6,4.6,4.6h142.7c2.5,0,4.6-2.1,4.6-4.6v-8.2c0-2.5-2.1-4.6-4.6-4.6H209.5z M193.5,312.9v-24.8h-58.8v24.8H193.5z
	 M312.1,219.7H16v39.4c0,7.2,5.8,13,13,13h270c7.2,0,13-5.9,13-13V219.7z M312.1,149.1l-7.5,9.7c-4.9,6.4-12.4,10.3-20.4,10.8
	c-0.6,0-1.2,0.1-1.8,0.1c-7.5,0-14.5-2.9-19.8-8.2l-64-64c-5.3-5.3-8.2-12.3-8.2-19.8c0-7.5,2.9-14.5,8.2-19.8
	c11-10.9,28.8-10.9,39.7,0l41.5,41.5l32.4-41.9V43.3c0-7.2-5.9-13-13-13H29c-7.2,0-13,5.9-13,13v160.4h296.1V149.1z M382.3,26.5
	c-0.4-3.2-2-6-4.6-8c-2.5-2-5.7-2.8-8.9-2.4c-3.2,0.4-6,2-8,4.6l-32.6,42.2l-16,20.7l-30.9,39.9l-54.4-54.3
	c-2.3-2.4-5.4-3.5-8.5-3.5c-3.1,0-6.2,1.2-8.5,3.5c-2.3,2.3-3.5,5.3-3.5,8.5c0,3.2,1.3,6.3,3.5,8.5l64,64c2.5,2.5,5.8,3.7,9.3,3.5
	c3.4-0.2,6.6-1.9,8.8-4.7l20.2-26.1l16-20.7l51.7-66.9C381.8,32.9,382.7,29.7,382.3,26.5z"/>
<path class="st0" d="M54.6,119.3c0-4.4,3.6-8,8-8h91.1c4.4,0,8,3.6,8,8c0,4.4-3.6,8-8,8H62.6C58.2,127.3,54.6,123.7,54.6,119.3z
	 M104.7,158.3h-65c-4.4,0-8,3.6-8,8c0,4.4,3.6,8,8,8h65c4.4,0,8-3.6,8-8C112.7,161.9,109.1,158.3,104.7,158.3z M39.7,150.8h45.7
	c4.4,0,8-3.6,8-8c0-4.4-3.6-8-8-8H39.7c-4.4,0-8,3.6-8,8C31.7,147.2,35.3,150.8,39.7,150.8z M281.6,175.6c4.4,0,8-3.6,8-8
	s-3.6-8-8-8H174c-4.4,0-8,3.6-8,8s3.6,8,8,8H281.6z M308.6,215.1h-76.8c-4.4,0-8,3.6-8,8s3.6,8,8,8h76.8c4.4,0,8-3.6,8-8
	S313,215.1,308.6,215.1z M308.6,187.4h-54c-4.4,0-8,3.6-8,8s3.6,8,8,8h54c4.4,0,8-3.6,8-8S313,187.4,308.6,187.4z M211.7,187.4
	h-34.3c-4.4,0-8,3.6-8,8s3.6,8,8,8h34.3c4.4,0,8-3.6,8-8S216.1,187.4,211.7,187.4z M393.4,85.7l-47.5,61.4c4.9,7.5,7.7,16.4,7.7,26
	v46.8c0,23.6-17.1,43.2-39.6,47.3l2.6,36.1c0.2,3.1-1.4,6-4.1,7.5c-1.2,0.7-2.5,1-3.9,1c-1.7,0-3.3-0.5-4.7-1.5L245.8,268h-75
	c-26.5,0-48-21.5-48-48v-14.5H93.3l-48.9,35.6c-1.4,1-3,1.5-4.7,1.5c-1.3,0-2.7-0.3-3.9-1c-2.7-1.5-4.3-4.4-4.1-7.5l2.1-29.5
	c-19.1-3.9-33.4-20.8-33.4-41V124c0-23.1,18.8-41.9,41.9-41.9h114c23.1,0,41.9,18.8,41.9,41.9v1.1h60.5l-3-3
	c-4.1-4.1-6.4-9.6-6.4-15.4c0-5.8,2.3-11.3,6.4-15.4c8.5-8.5,22.3-8.5,30.8,0l26.7,26.7L358.9,59c3.6-4.6,8.7-7.6,14.5-8.3
	c5.8-0.7,11.5,0.8,16.1,4.4c4.6,3.6,7.5,8.7,8.3,14.5C398.5,75.4,396.9,81.1,393.4,85.7z M122.8,189.6v-16.4c0,0,0,0,0,0
	c0-0.9,0-1.9,0.1-2.8c0-0.2,0-0.5,0.1-0.7c0.1-0.7,0.1-1.4,0.2-2.1c0-0.3,0.1-0.7,0.1-1c0.1-0.6,0.2-1.2,0.3-1.8
	c0.1-0.4,0.1-0.7,0.2-1.1c0.1-0.5,0.2-1.1,0.4-1.6c0.1-0.4,0.2-0.7,0.3-1.1c0.1-0.5,0.3-1.1,0.4-1.6c0.1-0.4,0.2-0.7,0.3-1.1
	c0.2-0.5,0.4-1.1,0.6-1.6c0.1-0.3,0.2-0.7,0.4-1c0.2-0.6,0.5-1.2,0.7-1.8c0.1-0.3,0.2-0.5,0.3-0.8c0.4-0.8,0.8-1.7,1.2-2.5
	c0,0,0,0,0,0h-6.6c-4.4,0-8-3.6-8-8c0-4.4,3.6-8,8-8h20.1c4.1-3.2,8.8-5.6,13.6-7.2c0,0,0,0,0,0c0.6-0.2,1.1-0.4,1.7-0.5
	c0.1,0,0.2-0.1,0.3-0.1c0.5-0.1,1-0.3,1.5-0.4c0.1,0,0.3-0.1,0.4-0.1c0.5-0.1,1-0.2,1.5-0.3c0.2,0,0.3-0.1,0.5-0.1
	c0.5-0.1,1-0.2,1.4-0.3c0.2,0,0.4-0.1,0.6-0.1c0.5-0.1,0.9-0.1,1.4-0.2c0.2,0,0.4,0,0.6-0.1c0.5-0.1,0.9-0.1,1.4-0.1
	c0.2,0,0.3,0,0.5,0c1.2-0.1,2.3-0.1,3.5-0.1h11.5V124c0-14.3-11.7-26-26-26h-114c-14.3,0-26,11.7-26,26v39.6c0,14.3,11.7,26,26,26
	c2.2,0,4.3,0.9,5.8,2.5c1.5,1.6,2.3,3.8,2.1,6l-1.4,20.1L86,191.1c1.4-1,3-1.5,4.7-1.5H122.8z M337.6,173.1c0-4.3-0.9-8.5-2.4-12.2
	l-2.5,3.3c-3.8,5-9.6,8-15.9,8.4c-0.5,0-0.9,0.1-1.4,0.1c-5.8,0-11.3-2.3-15.4-6.4L274.7,141H170.8c-4.3,0-8.6,0.9-12.5,2.5
	c0,0,0,0,0,0c-0.4,0.2-0.8,0.4-1.3,0.6c-0.1,0.1-0.2,0.1-0.3,0.2c-0.3,0.2-0.6,0.3-0.9,0.5c-0.2,0.1-0.4,0.2-0.6,0.3
	c-0.2,0.1-0.5,0.2-0.7,0.4c-0.2,0.1-0.5,0.3-0.7,0.4c-0.2,0.1-0.3,0.2-0.5,0.3c-0.3,0.2-0.5,0.4-0.8,0.5c-0.1,0.1-0.3,0.2-0.4,0.3
	c-0.3,0.2-0.5,0.4-0.8,0.6c-0.1,0.1-0.2,0.2-0.3,0.3c-0.3,0.2-0.5,0.4-0.8,0.7c-0.1,0.1-0.2,0.2-0.3,0.3c-0.1,0-0.1,0.1-0.2,0.1
	c0,0-0.1,0.1-0.1,0.1c-0.4,0.4-0.8,0.7-1.2,1.1c0,0-0.1,0.1-0.1,0.1c-0.4,0.4-0.8,0.8-1.1,1.1c0,0-0.1,0.1-0.1,0.1
	c-0.4,0.4-0.7,0.8-1,1.2c0,0-0.1,0.1-0.1,0.1c-0.3,0.4-0.6,0.8-0.9,1.2c0,0.1-0.1,0.1-0.1,0.2c-0.3,0.4-0.6,0.8-0.8,1.2
	c-0.1,0.1-0.1,0.2-0.2,0.3c-0.3,0.4-0.5,0.8-0.7,1.2c-0.1,0.1-0.1,0.3-0.2,0.4c-0.2,0.4-0.4,0.7-0.6,1.1c-0.1,0.2-0.2,0.4-0.3,0.6
	c-0.2,0.3-0.3,0.6-0.5,0.9c-0.1,0.3-0.2,0.6-0.4,0.8c-0.1,0.2-0.2,0.5-0.3,0.7c-0.2,0.4-0.3,0.8-0.4,1.2c0,0.1-0.1,0.2-0.1,0.4
	c-1.1,3.2-1.7,6.7-1.7,10.2l0,0v24.4c0,0,0,0.1,0,0.1v22.3c0,17.7,14.4,32.1,32.1,32.1h77.6c1.7,0,3.3,0.5,4.7,1.5l46.4,33.8
	l-1.9-26.8v-0.3c0-0.1,0-0.2,0-0.3c0,0,0-0.1,0-0.1c0-0.2,0-0.3,0-0.4l0-0.4c0-0.1,0-0.3,0.1-0.4c0-0.1,0-0.3,0.1-0.4
	c0-0.1,0.1-0.3,0.1-0.4c0-0.1,0.1-0.2,0.1-0.4c0-0.1,0.1-0.2,0.1-0.4c0-0.1,0.1-0.3,0.1-0.4c0.1-0.1,0.1-0.2,0.2-0.3
	c0.1-0.1,0.1-0.2,0.2-0.4c0.1-0.1,0.1-0.2,0.2-0.3c0.1-0.1,0.1-0.2,0.2-0.4c0.1-0.1,0.2-0.2,0.2-0.3c0.1-0.1,0.2-0.2,0.2-0.3
	c0.1-0.1,0.2-0.2,0.3-0.3c0.1-0.1,0.2-0.2,0.3-0.3c0.1-0.1,0.2-0.2,0.3-0.3c0.1-0.1,0.2-0.2,0.3-0.2c0.1-0.1,0.2-0.2,0.3-0.2
	c0.1-0.1,0.2-0.1,0.3-0.2c0.1-0.1,0.2-0.2,0.4-0.2c0.1-0.1,0.2-0.1,0.3-0.2c0.1-0.1,0.2-0.1,0.4-0.2c0.1-0.1,0.2-0.1,0.4-0.2
	c0.1,0,0.2-0.1,0.4-0.1c0.1-0.1,0.3-0.1,0.4-0.1c0.1,0,0.2-0.1,0.4-0.1c0.1,0,0.3-0.1,0.4-0.1c0.1,0,0.2,0,0.4-0.1
	c0.2,0,0.3,0,0.4-0.1c0,0,0.1,0,0.1,0c0.1,0,0.2,0,0.3,0c0.1,0,0.2,0,0.3,0c17.7,0,32.1-14.4,32.1-32.1V173.1z M382,71.6
	c-0.2-1.6-1-2.9-2.2-3.9c-1.3-1-2.8-1.4-4.4-1.2c-1.6,0.2-2.9,1-3.9,2.2l-46.7,60.4l-9.9,12.8l-39.5-39.5c-1.2-1.2-2.7-1.7-4.2-1.7
	s-3,0.6-4.2,1.7c-1.1,1.1-1.7,2.6-1.7,4.2c0,1.6,0.6,3,1.7,4.2l14.3,14.3l15.9,15.9l14,14c1.2,1.2,2.8,1.8,4.6,1.7
	c1.7-0.1,3.2-0.9,4.3-2.3l5.2-6.7l9.7-12.6L380.8,76C381.7,74.7,382.2,73.2,382,71.6z"/>
<path class="st0" d="M101.5,229.2H61.1c-4.8,0-8.7,3.9-8.7,8.7v115.7c0,4.8,3.9,8.7,8.7,8.7h40.4c4.8,0,8.7-3.9,8.7-8.7V237.9
	C110.2,233.1,106.3,229.2,101.5,229.2z M92.8,344.9H69.8v-98.3h22.9V344.9z M180.1,197.8h-40.4c-4.8,0-8.7,3.9-8.7,8.7v147.1
	c0,4.8,3.9,8.7,8.7,8.7h40.4c4.8,0,8.7-3.9,8.7-8.7V206.5C188.8,201.7,184.9,197.8,180.1,197.8z M171.4,344.9h-22.9V215.2h22.9
	V344.9z M258.7,164.4h-40.4c-4.8,0-8.7,3.9-8.7,8.7v180.5c0,4.8,3.9,8.7,8.7,8.7h40.4c4.8,0,8.7-3.9,8.7-8.7V173.1
	C267.4,168.3,263.5,164.4,258.7,164.4z M250,344.9H227V181.8H250V344.9z M337.3,113.4h-40.4c-4.8,0-8.7,3.9-8.7,8.7v231.5
	c0,4.8,3.9,8.7,8.7,8.7h40.4c4.8,0,8.7-3.9,8.7-8.7V122.2C346,117.3,342.1,113.4,337.3,113.4z M328.5,344.9h-22.9V130.9h22.9V344.9z
	 M52.4,155c0-4.8,3.9-8.7,8.7-8.7c137.4,0,197.5-60.8,255.4-128.8H288c-4.8,0-8.7-3.9-8.7-8.7c0-4.8,3.9-8.7,8.7-8.7h47.3
	c0,0,0,0,0,0c0.2,0,0.4,0,0.7,0c0.1,0,0.1,0,0.2,0c0.3,0,0.6,0.1,0.8,0.1c0,0,0,0,0,0c0.3,0.1,0.6,0.1,0.8,0.2
	c0.1,0,0.2,0.1,0.4,0.1c0.1,0.1,0.3,0.1,0.4,0.2c0.2,0.1,0.4,0.2,0.6,0.3c0.1,0,0.1,0.1,0.2,0.1c0.2,0.1,0.4,0.3,0.7,0.4
	c0.1,0,0.1,0.1,0.2,0.1c0.2,0.1,0.3,0.2,0.5,0.4c0,0,0,0,0,0c0.1,0.1,0.1,0.1,0.2,0.2c0.1,0.1,0.3,0.2,0.4,0.3
	c0.1,0.1,0.2,0.2,0.3,0.3c0.1,0.1,0.2,0.2,0.3,0.3c0.1,0.1,0.2,0.3,0.3,0.4c0.1,0.1,0.1,0.2,0.2,0.3c0.1,0.1,0.2,0.3,0.2,0.4
	c0.1,0.1,0.1,0.2,0.2,0.3c0.1,0.1,0.1,0.3,0.2,0.4c0.1,0.1,0.1,0.3,0.2,0.4c0,0.1,0.1,0.2,0.1,0.4c0.1,0.1,0.1,0.3,0.1,0.4
	c0,0.1,0.1,0.2,0.1,0.4c0,0.1,0.1,0.3,0.1,0.5c0,0.1,0,0.3,0.1,0.4c0,0.1,0,0.3,0.1,0.4c0,0.2,0,0.4,0,0.5c0,0.1,0,0.2,0,0.3v47
	c0,4.8-3.9,8.7-8.7,8.7c-4.8,0-8.7-3.9-8.7-8.7V32.4c-29.6,34.3-57.1,62.9-92.7,85.7c-48.5,31.1-103.4,45.6-172.8,45.6
	C56.3,163.7,52.4,159.8,52.4,155z"/>
<path class="st1" d="M159.2,305.1c-24.7,0-44.8-20.1-44.8-44.7c0-24.7,20.1-44.7,44.8-44.7c24.6,0,44.7,20.1,44.7,44.7
	C203.9,285,183.8,305.1,159.2,305.1z M159.2,226.8c-18.5,0-33.6,15.1-33.6,33.6c0,18.5,15.1,33.5,33.6,33.5
	c18.5,0,33.5-15,33.5-33.5C192.7,241.8,177.7,226.8,159.2,226.8z M304.2,255.5c-8.2,0-14.9-6.7-14.9-14.9c0-8.2,6.7-14.9,14.9-14.9
	c8.2,0,14.9,6.7,14.9,14.9C319.1,248.8,312.4,255.5,304.2,255.5z M304.2,236.8c-2.1,0-3.8,1.7-3.8,3.8s1.7,3.8,3.8,3.8
	s3.8-1.7,3.8-3.8S306.3,236.8,304.2,236.8z M77.1,152.1c-8.2,0-14.9-6.7-14.9-14.9c0-8.2,6.7-14.9,14.9-14.9
	c8.2,0,14.9,6.7,14.9,14.9C92.1,145.4,85.4,152.1,77.1,152.1z M77.1,133.4c-2.1,0-3.8,1.7-3.8,3.8c0,2.1,1.7,3.8,3.8,3.8
	c2.1,0,3.8-1.7,3.8-3.8C80.9,135.1,79.2,133.4,77.1,133.4z M326.3,168.5c-8.2,0-14.9-6.7-14.9-14.9s6.7-14.9,14.9-14.9
	c8.2,0,14.9,6.7,14.9,14.9S334.6,168.5,326.3,168.5z M326.3,149.8c-2.1,0-3.8,1.7-3.8,3.8c0,2.1,1.7,3.8,3.8,3.8s3.8-1.7,3.8-3.8
	C330.1,151.5,328.4,149.8,326.3,149.8z M165.6,103.1c2.4-1.9,2.9-5.4,1-7.8l-21-27.1c-1.9-2.4-5.4-2.9-7.8-1c-2.4,1.9-2.9,5.4-1,7.8
	l21,27.1c1.1,1.4,2.7,2.2,4.4,2.2C163.3,104.3,164.5,103.9,165.6,103.1z M191.2,70.9c2.7-1.4,3.8-4.8,2.4-7.5l-23-44.4
	c-1.4-2.7-4.8-3.8-7.5-2.4c-2.7,1.4-3.8,4.8-2.4,7.5l23,44.4c1,1.9,2.9,3,5,3C189.5,71.5,190.4,71.3,191.2,70.9z M308.7,96.9
	l20.5-27.5c1.8-2.5,1.3-6-1.1-7.8c-2.5-1.8-6-1.3-7.8,1.1l-20.5,27.5c-1.8,2.5-1.3,6,1.1,7.8c1,0.7,2.2,1.1,3.3,1.1
	C306,99.1,307.6,98.3,308.7,96.9z M280.6,67.6l22.2-44.8c1.4-2.8,0.2-6.1-2.5-7.5c-2.8-1.4-6.1-0.2-7.5,2.5l-22.2,44.8
	c-1.4,2.8-0.2,6.1,2.5,7.5c0.8,0.4,1.6,0.6,2.5,0.6C277.7,70.7,279.7,69.6,280.6,67.6z M237.5,26.6l0-5.2l-0.1-15.9
	c0-3.1-2.5-5.5-5.6-5.5c0,0,0,0,0,0c-3.1,0-5.6,2.5-5.5,5.6l0.1,15.9l0,5.2l0.3,38.9c0,3.1,2.5,5.5,5.6,5.5c0,0,0,0,0,0
	c3.1,0,5.6-2.5,5.5-5.6L237.5,26.6z M297.8,136.6c-5.1-26.5-27.5-46.1-54-48.1v-0.2h-17.1v0.2c-26.5,2-48.8,21.6-54,48.1
	c-1.3,6.9-1.4,14-0.3,20.9c-0.8-0.5-1.8-0.8-2.8-0.8h-27.6c-3.1,0-5.6,2.5-5.6,5.6V184l-9.4-15.8c-1.6-2.6-5-3.5-7.6-1.9l-23.7,14
	c-1.3,0.8-2.2,2-2.6,3.4c-0.4,1.4-0.1,3,0.6,4.2L102,202l-13.9-8.6c-2.6-1.6-6.1-0.8-7.7,1.8l-14.6,23.4c-0.8,1.3-1,2.8-0.7,4.2
	c0.3,1.4,1.2,2.7,2.5,3.5l13.9,8.6l-16.3-1.3c-1.5-0.1-2.9,0.4-4.1,1.3c-1.1,1-1.8,2.3-1.9,3.8l-2.1,27.5c-0.2,3.1,2.1,5.8,5.1,6
	l16.3,1.3l-15,6.4c-1.4,0.6-2.4,1.7-3,3c-0.6,1.4-0.5,2.9,0,4.3l10.8,25.4c1.2,2.8,4.5,4.2,7.3,2.9l15-6.4l-10.4,12.6
	c-2,2.4-1.6,5.9,0.8,7.8l21.3,17.6c1.1,0.9,2.6,1.4,4.1,1.3c1.5-0.1,2.8-0.9,3.8-2l10.4-12.7l-3.4,16.1c-0.6,3,1.3,6,4.3,6.6
	l26.9,5.8c0.4,0.1,0.8,0.1,1.2,0.1c2.6,0,4.9-1.8,5.4-4.4l3.4-16l4.3,15.8c0.4,1.4,1.3,2.6,2.6,3.4c1.3,0.7,2.8,0.9,4.2,0.5
	l26.6-7.3c3-0.8,4.7-3.9,3.9-6.8l-4.3-15.8l11.1,12c2.1,2.3,5.6,2.4,7.9,0.3l20.2-18.7c1.1-1,1.7-2.4,1.8-3.9c0.1-1.5-0.5-2.9-1.5-4
	l-11.1-12l15.4,5.5c2.9,1,6.1-0.5,7.1-3.4l9.3-26c0.5-1.4,0.4-2.9-0.2-4.3c-0.6-1.3-1.8-2.4-3.2-2.9l-3-1.1
	c5.9-2.1,10.2-7.7,10.2-14.4c0-3.6-1.3-7-3.5-9.6c2.2-2.6,3.5-6,3.5-9.6c0-2.7-0.7-5.3-2-7.5l30.5-55.8
	C298.2,164.4,300.4,150.2,297.8,136.6z M178.9,176.6l1,1.8l-2.6,5.1c-0.7-0.2-1.4-0.3-2.1-0.5v-14.7
	C176.2,171.1,177.4,173.9,178.9,176.6z M241.2,298.6l-17-6.1c-2.5-0.9-5.3,0.1-6.7,2.4c-1.3,2.2-2.6,4.1-3.8,5.7
	c-1.6,2.2-1.5,5.2,0.4,7.1l12.2,13.2L214.3,332l-12.3-13.2c-1.8-2-4.8-2.4-7.1-0.9c-1.8,1.2-3.8,2.3-5.9,3.3
	c-2.4,1.2-3.6,3.9-2.9,6.5l4.7,17.4l-15.9,4.3l-4.7-17.4c-0.7-2.6-3.2-4.4-6-4.1c-1.7,0.2-3.5,0.3-5.2,0.3c-0.2,0-0.4,0-0.6,0
	c-0.4,0-0.7,0-1,0c-2.6,0-4.9,1.8-5.5,4.4l-3.8,17.6l-16.1-3.4l3.7-17.5c0.6-2.6-0.8-5.2-3.3-6.3c-2.1-0.9-4.1-1.9-6.2-3
	c-2.4-1.3-5.3-0.7-7,1.3l-11.4,13.8l-12.7-10.5l11.4-13.8c1.7-2.1,1.7-5,0-7.1c-1.3-1.6-2.7-3.4-4.2-5.6c-1.5-2.2-4.3-3-6.8-2
	l-16.5,7L73,288l16.5-7c2.5-1.1,3.9-3.7,3.3-6.3c-0.5-2.1-0.8-4.3-1.1-6.8c-0.3-2.6-2.4-4.7-5.1-4.9l-17.9-1.4l1.2-16.4l18,1.4
	c2.7,0.2,5.1-1.5,5.8-4.1c0.6-2.1,1.2-4.2,2.1-6.5c1-2.5,0-5.3-2.3-6.7l-15.3-9.5l8.7-14l15.3,9.5c2.3,1.4,5.2,1,7-0.9
	c1.5-1.6,3.2-3.2,5-4.9c1.9-1.8,2.4-4.7,1-6.9l-9.2-15.5l14.1-8.4l9.2,15.5c1.4,2.3,4.1,3.3,6.6,2.4c2.4-0.9,4.8-1.6,7.2-2.1
	c2.5-0.6,4.3-2.8,4.3-5.4v-21.1H164v19.8c0,2.8,2,5.1,4.8,5.5c3.6,0.5,6.8,1.2,9.8,2.1c2.6,0.8,5.3-0.4,6.6-2.8l1.2-2.4l23.1,42.2
	c-1.3,2.2-2,4.7-2,7.5c0,3.7,1.3,7,3.4,9.6c-2.2,2.6-3.4,6-3.4,9.6c0,8.4,6.8,15.2,15.2,15.2h4c0.6,1.2,1.7,2.3,3.1,2.8l17,6.1
	L241.2,298.6z M247.8,263.1h-25.1c-2.2,0-4-1.8-4-4c0-2.2,1.8-4,4-4h25.1c2.2,0,4,1.8,4,4C251.8,261.3,250,263.1,247.8,263.1z
	 M248.4,243.8c-0.2,0-0.4,0.1-0.7,0.1h-25.1c-0.2,0-0.4,0-0.6-0.1c-1.9-0.3-3.4-2-3.4-4c0-0.9,0.3-1.8,0.9-2.5
	c0.6-0.8,1.5-1.3,2.5-1.5c0.2,0,0.4-0.1,0.6-0.1h25.1c0.2,0,0.4,0,0.7,0.1c1,0.2,1.9,0.7,2.5,1.5c0.5,0.7,0.9,1.5,0.9,2.5
	C251.8,241.8,250.4,243.5,248.4,243.8z M222,171.5h-4.2c-2.3,0-4.2-1.9-4.2-4.2v-1.5c0-2.3,1.9-4.2,4.2-4.2c2.3,0,4.2,1.9,4.2,4.2
	V171.5z M233.2,224.6v-41.9h4.1v41.9H233.2z M281.8,171.2l-29.6,54.1c-1.2-0.4-2.4-0.6-3.7-0.6v-42h4.2c8.5,0,15.3-6.9,15.3-15.3
	v-1.5c0-8.4-6.9-15.3-15.3-15.3c-8.4,0-15.3,6.9-15.3,15.3v5.7h-4.1v-5.7c0-4.2-1.7-8.1-4.5-10.8c-2.8-2.8-6.6-4.5-10.8-4.5
	c-8.5,0-15.3,6.9-15.3,15.3v1.5c0,8.4,6.9,15.3,15.3,15.3h4.2v42c-1.3,0.1-2.6,0.3-3.7,0.6l-25.8-47.1l-3.8-7
	c-0.8-1.4-1.5-2.9-2.1-4.5c-3.7-8.8-4.8-18.6-2.9-28.1c4.4-22.7,24.4-39.2,47.6-39.2h8c23.2,0,43.2,16.5,47.6,39.2
	C289,149.8,287.2,161.3,281.8,171.2z M248.4,171.5v-5.7c0-1.2,0.5-2.2,1.2-2.9c0.8-0.8,1.8-1.2,2.9-1.2c2.3,0,4.2,1.9,4.2,4.2v1.5
	c0,2.3-1.9,4.2-4.2,4.2H248.4z"/>
</svg>
