<?xml version="1.0" encoding="utf-8"?>
<!-- Generator: Adobe Illustrator 24.0.2, SVG Export Plug-In . SVG Version: 6.00 Build 0)  -->
<svg version="1.1" id="Capa_1" xmlns="http://www.w3.org/2000/svg" xmlns:xlink="http://www.w3.org/1999/xlink" x="0px" y="0px"
	 viewBox="0 0 500 500" style="enable-background:new 0 0 500 500;" xml:space="preserve">
<style type="text/css">
	.st0{fill:#23383F;}
</style>
<g>
	<path class="st0" d="M378.6,250.2c-0.5,71.6-58.1,128.6-129.7,128.2c-70.8-0.3-128.2-58.6-127.6-129.7
		c0.5-70.8,58.6-128.2,129.1-127.7C321.6,121.6,379.2,179.5,378.6,250.2z M250.2,166.7c-46.3,0-83.4,37-83.4,82.8
		c0,47,37,83.4,84.6,83.4c44.8,0,81.7-37.7,81.7-83.4C333,203.8,295.9,166.6,250.2,166.7z"/>
	<path class="st0" d="M383.5,146.3c-16.7,0.1-29.9-13-30.1-29.7c-0.2-16.9,13.2-30.5,30.1-30.5c16.6,0,30.1,13.3,30.2,29.9
		C413.8,132.9,400.5,146.2,383.5,146.3z"/>
	<path class="st0" d="M250.1,500.6c-34.4-0.7-68.8-1.1-103.1-2.1c-25.4-0.7-50.1-5.1-72.9-16.9c-39.9-20.7-62.9-54.3-69.3-98.1
		c-3.9-26.7-4.5-53.9-4.9-81c-0.6-43.6-0.2-87.2,0.4-130.9c0.3-24.4,0.9-48.8,8-72.5C24.5,45.3,61.2,13.6,116.1,4.7
		c26.2-4.3,53.2-4.5,79.8-4.9c44-0.7,88-0.3,132,0.3c24.5,0.3,49.2,0.9,73,8.1c51.2,15.5,82.7,49.9,93,101.9
		c4.6,23.4,5.4,47.7,5.9,71.6c0.9,45,0.6,89.9,0.1,134.9c-0.3,26.6-0.2,53.5-7.1,79.6c-15.1,56.9-58.4,94.3-117.2,100.2
		c-24.4,2.4-49.1,2.8-73.6,3.5c-17.3,0.5-34.6,0.1-51.9,0.1C250.1,500.2,250.1,500.4,250.1,500.6z M249.9,44c0,0.3,0,0.7,0,1
		c-20.4,0-40.7-0.4-61.1,0.1c-19.8,0.5-39.6,1.1-59.2,3.1c-41.9,4.2-71.3,29.6-79,70.9c-4.2,22.8-4.7,46.5-5.2,69.9
		c-0.8,40.1-0.5,80.3-0.1,120.4c0.2,20.1,1.2,40.3,3,60.4c3.8,41.3,29.4,71.4,70.1,79.1c23,4.3,46.9,4.9,70.4,5.4
		c40.5,0.8,81.1,0.5,121.6,0.1c19.9-0.2,40-1.1,59.8-3c41.9-4.2,71.3-29.6,79-71c4.2-22.5,4.7-45.8,5.2-68.7
		c0.8-40.9,0.5-81.8,0.1-122.7c-0.2-19.8-1.1-39.6-3-59.2c-2-20-8.9-38.4-22.9-53.6c-18.4-20-42.2-27.7-68.1-29
		C323.6,45.3,286.7,45,249.9,44z"/>
</g>
</svg>
