<?xml version="1.0" encoding="utf-8"?>
<!-- Generator: Adobe Illustrator 22.0.1, SVG Export Plug-In . SVG Version: 6.00 Build 0)  -->
<svg version="1.1" id="Capa_1" xmlns="http://www.w3.org/2000/svg" xmlns:xlink="http://www.w3.org/1999/xlink" x="0px" y="0px"
	 viewBox="0 0 512 512" style="enable-background:new 0 0 512 512;" xml:space="preserve">
<style type="text/css">
	.st0{fill:#757575;}
</style>
<g>
	<path class="st0" d="M10.6,206c2.9-7.3,4.8-15.4,9-21.9c7.4-11.4,18.7-18.3,32.4-18.8c18.5-0.7,37.1-0.4,55.7,0
		c8.2,0.2,15.3,4.1,22,8.7c1.3,0.9,3.7,1.7,4.9,1.2c19.4-8.6,37-19.6,50.1-36.9c13.3-17.5,20.7-37.4,23.8-59
		c1.4-9.3,1.6-18.8,2.8-28.2c4.1-32,38.2-49.7,67-34.6c21.6,11.3,35.1,29.9,44.6,51.7c9.1,20.8,10.7,42.7,9.3,65
		c-0.7,10.5-1.8,21-2.8,32c1.7,0.1,3.8,0.2,5.8,0.3c25.3,0.7,50.6,1,75.9,2.1c14.8,0.6,29.8,1.4,44.4,4c31.4,5.6,50.8,33.4,46.9,65
		c-1.4,11.2-4.5,21.5-11.5,30.6c-0.8,1.1-1,3.3-0.4,4.7c10.9,27.2,4.6,51.3-13,73.4c-1.1,1.4-2.4,3.8-1.9,5.2
		c5.9,17.8,1.6,34.5-4.9,51c-4.1,10.5-9.9,19.7-18.9,26.7c-1.2,0.9-1.9,3.3-1.7,4.8c4.2,36-15.4,62.6-51.3,69.3
		c-0.6,0.1-1.1,0.5-1.7,0.8c-37.2,0-74.3,0-111.5,0c-2.3-0.3-4.7-0.7-7-1c-12.9-1.5-25.9-2-38.6-4.6c-30.7-6.1-61.2-13.2-91.8-20
		c-3.1-0.7-4.8-0.5-6.5,2.6c-4,7.5-9.9,13.4-17.6,17.2c-4.6,2.3-9.7,3.8-14.6,5.7c-19.2,0-38.4,0-57.7,0c-0.6-0.2-1.1-0.6-1.7-0.7
		c-12-1.7-21.7-7.5-29.4-16.9c-5.7-7-8.3-15.2-10.2-23.8C10.6,376.5,10.6,291.3,10.6,206z M287.5,195.5c1-3.1,1.6-5.5,2.5-7.9
		c8.4-22.3,11.9-45.3,11.8-69.1c-0.1-20-5-38.3-16.2-54.8c-5.5-8-11.8-15.2-20.7-19.7c-11.9-6-22.8,0.8-23.7,14
		c-0.8,11.8-1.6,23.7-3.9,35.2c-10.7,52.2-40.3,89.3-89.9,109.8c-10.7,4.4-13.7,8.7-13.7,20.4c0,68.2,0,136.5,0.1,204.7
		c0,10.6,3.1,14.9,13.3,17.4c15,3.8,30.2,7.2,45.2,11c33.1,8.3,66.6,14.7,100.9,15.5c31.9,0.7,63.7,0.4,95.6,0.2
		c16.7-0.1,24-5.5,29.7-21.2c5.4-14.9-1.5-24.8-17.3-24.8c-7,0-14.1,0.1-21.1-0.1c-4.7-0.1-7.8-3.2-7.9-7.4c-0.1-4.3,3.1-7.6,8-7.8
		c3-0.2,6.1,0,9.1-0.1c8.8-0.2,17.6-0.2,26.4-0.9c7.8-0.6,15.6-2.7,20.5-9.2c7.9-10.5,11.9-22.6,11.1-35.9
		c-0.4-7.7-5.1-12.7-12.6-14.4c-3.4-0.8-7-1-10.5-1.1c-9.4-0.1-18.9,0-28.3-0.1c-4.9-0.1-8.2-3.3-8.3-7.6c0-4.3,3.2-7.4,8.2-7.7
		c1.3-0.1,2.6,0,3.8,0c11.1,0,22.1,0.5,33.1-0.2c5.5-0.4,11.3-2.1,16.3-4.6c12.4-6.1,18.8-29.3,15.1-40.7
		c-2.7-8.3-8.2-13.6-16.9-15.2c-3.3-0.6-6.7-0.8-10-0.8c-8.6-0.1-17.3,0.1-25.9-0.1c-5-0.1-8.2-3.3-8.3-7.6c0-4.3,3.2-7.5,8.1-7.7
		c5.4-0.2,10.9,0,16.3-0.1c7.7-0.2,15.4,0,23-0.9c9.6-1.1,17.9-5.4,20.2-15.7c1.4-6.6,1.4-13.7,0.7-20.5
		c-0.9-8.4-6.1-14.8-14.2-17.1c-9-2.6-18.4-4.9-27.7-5.1c-44-1.1-88.1-1.5-132.1-2.1C294.2,195.4,291.2,195.5,287.5,195.5z
		 M118.2,334.4c0-40.7,0-81.4,0-122.1c0-10.5-6.2-16.8-16.7-16.8c-14.4-0.1-28.8-0.1-43.2,0c-10.8,0-16.9,6.2-16.9,17.1
		c0,80.9,0,161.8,0,242.7c0,10.9,6.2,17,16.9,17.1c13.8,0.1,27.6,0,41.3,0c13,0,18.6-5.6,18.6-18.8
		C118.2,413.8,118.2,374.1,118.2,334.4z"/>
	<path class="st0" d="M102.8,433.8c0.1,12.5-10.3,23-22.8,23.1c-12.7,0.1-23.3-10.5-23.2-23.2c0.1-12.5,10.5-22.9,23-22.9
		C92.3,410.8,102.7,421.2,102.8,433.8z M80,426.2c-4-0.1-7.7,3.4-7.8,7.4c-0.1,4,3.4,7.7,7.4,7.8c4,0.1,7.7-3.4,7.8-7.4
		C87.5,430.1,84,426.4,80,426.2z"/>
</g>
</svg>
