<?xml version="1.0" encoding="utf-8"?>
<!-- Generator: Adobe Illustrator 22.0.1, SVG Export Plug-In . SVG Version: 6.00 Build 0)  -->
<svg version="1.1" id="Capa_1" xmlns="http://www.w3.org/2000/svg" xmlns:xlink="http://www.w3.org/1999/xlink" x="0px" y="0px"
	 viewBox="0 0 512 512" style="enable-background:new 0 0 512 512;" xml:space="preserve">
<style type="text/css">
	.st0{fill:#FFFFFF;}
</style>
<path class="st0" d="M442.2,151.3V34.9c0-19.3-15.6-34.9-34.9-34.9c-19.3,0-34.9,15.6-34.9,34.9v8.9L193.8,97.4L23.3,116.4
	C10.4,116.4,0,126.8,0,139.6v162.9c0,12.8,10.4,23.3,23.3,23.3l79.2,8.8l37.4,168.3l0.2,0c1.2,5.2,5.6,9.1,11.1,9.1h93.1
	c6.4,0,11.6-5.2,11.6-11.6c0-0.9-0.3-1.7-0.5-2.5l0.2,0l-32-144.1l148.7,44.6v8.9c0,19.3,15.6,34.9,34.9,34.9
	c19.3,0,34.9-15.6,34.9-34.9V290.9c38.5,0,69.8-31.3,69.8-69.8C512,182.5,480.7,151.3,442.2,151.3 M23.3,302.6V256h58.2
	c6.4,0,11.6-5.2,11.6-11.6c0-6.4-5.2-11.6-11.6-11.6H23.3v-23.3h34.9c6.4,0,11.6-5.2,11.6-11.6c0-6.4-5.2-11.6-11.6-11.6H23.3v-46.6
	l162.9-18.1v199.1L23.3,302.6z M150.3,442.2L127,337.4l66.8,7.4l4.4,1.3l21.3,96.1H150.3z M224.7,465.4l5.2,23.3h-69.3l-5.1-23.3
	H224.7z M372.4,374l-162.9-48.9V117l162.9-48.9V374z M418.9,407.3c0,6.4-5.2,11.6-11.6,11.6c-6.4,0-11.6-5.2-11.6-11.6V34.9
	c0-6.4,5.2-11.6,11.6-11.6c6.4,0,11.6,5.2,11.6,11.6V407.3z M442.2,267.6v-93.1c25.7,0,46.5,20.8,46.5,46.5
	C488.7,246.8,467.9,267.6,442.2,267.6"/>
</svg>
