<?xml version="1.0" encoding="utf-8"?>
<!-- Generator: Adobe Illustrator 24.0.2, SVG Export Plug-In . SVG Version: 6.00 Build 0)  -->
<svg version="1.1" id="Capa_1" xmlns="http://www.w3.org/2000/svg" xmlns:xlink="http://www.w3.org/1999/xlink" x="0px" y="0px"
	 viewBox="0 0 500 500" style="enable-background:new 0 0 500 500;" xml:space="preserve">
<style type="text/css">
	.st0{fill:#23383F;}
</style>
<g>
	<g>
		<path class="st0" d="M251.7,500c-49.9-1.8-97.3-3.4-144.7-5.5c-16.2-0.7-32.1-3.6-44.8-15.4c-10.2-9.6-15.4-22-16.9-35.2
			c-2.9-24.7-5.9-49.5-5.8-74.3c0.1-35,2.2-70.1,4.8-105c1-13.6,5.9-26.8,15.5-37.5c12-13.4,27.8-17.7,44.8-18.2
			c53.6-1.5,107.2-3.6,160.8-3.7c43.9-0.1,87.8,2.2,131.6,3.9c21.6,0.9,40.4,8.5,49.8,29.4c4.8,10.6,8,22.4,9.4,34
			c5.7,48.2,5.4,96.5,1.6,144.8c-0.9,12.2-3.1,24.5-6.5,36.2c-7.6,26.1-25.2,39.6-52.6,40.8C348.9,496.6,299.1,498.2,251.7,500z
			 M280.2,431c2.1,1.7,3.1,2.4,3.9,3.2c8.8,8.7,18.7,14.4,31.3,9.4c12.4-4.9,13.9-16.3,14.9-27.7c0-0.2,0-0.5,0-0.7
			c0.2-23.2,0.9-46.5,0.6-69.7c-0.1-9.6-1.1-19.5-3.5-28.7c-4.6-17.2-21.8-22.5-36.4-12.1c-3.2,2.3-6.2,4.8-10.6,8.2
			c0-14.8,0-28.2,0-41.6c0-17,0-17-17.3-17c-9.4,0-9.4,0-9.4,9.2c0,53.6-0.2,107.2,0.1,160.7c0.1,23.6-4.7,19.2,21.2,19.6
			c4,0.1,5.6-1.6,5.3-5.5C280.1,436.3,280.2,434.4,280.2,431z M205.2,431.5c1.5,12.1,1.5,12.1,14.8,12.1c1.7,0,3.3-0.2,5,0
			c6.4,0.8,8.6-1.6,8.5-8.3c-0.3-38.4-0.1-76.7-0.1-115.1c0-19-0.1-18.8-18.9-19c-6.7-0.1-9,1.6-8.9,8.6c0.4,30.8,0,61.6,0.3,92.4
			c0.1,6.4-2.1,11.2-6.9,14.7c-2.8,2-6.7,2.5-10.2,3.6c-1.1-3.1-3-6.3-3-9.4c-0.2-34.1-0.3-68.2-0.1-102.3c0-5.3-1.3-8-7.1-7.5
			c-4.2,0.4-8.6,0.4-12.8,0c-6.1-0.6-8.2,1.5-8.2,7.9c0.3,34.8,0,69.6,0.2,104.5c0,5.6,0.6,11.4,2,16.8
			c3.3,12.8,14.1,18.5,26.3,13.2C192.8,440.7,198.7,435.8,205.2,431.5z M399.9,377.1c6.6,0,13.3-0.1,19.9,0c4.2,0.1,6.1-1.4,5.9-5.8
			c-0.6-12.5-0.2-25.1-1.5-37.6c-2.3-21.4-16.6-33.9-37.5-34c-20.5-0.2-36.6,12.7-38,33.6c-1.6,25.2-1.9,50.7-0.3,75.8
			c1.5,23.4,17.7,36.5,40.3,36c21.1-0.4,34-13.3,36.6-36.6c1.7-15.4,1.7-15.7-14.2-15.4c-13.2,0.2-13.5-2.8-13.1,12.7
			c0,1.4,0,2.9-0.3,4.2c-1.1,6.1-3.5,10.8-10.9,10.7c-7.1-0.1-10.6-4.3-11.1-10.5c-0.8-9.7-0.9-19.4-0.7-29.1c0-1.4,3.2-3.9,5-4
			C386.6,376.8,393.3,377.1,399.9,377.1z M102.8,281.5c0,3.8,0,6.6,0,9.4c0,44.6,0,89.1,0,133.7c0,19.2,0,19.2,19.6,19.1
			c9.5-0.1,9.5-0.1,9.5-9.3c0-47.9,0-95.8,0-143.6c0-9.2,0-9.2,9.4-9.2c0.7,0,1.4,0,2.1,0c20.2,0,20.1,0,19.7-20.5
			c-0.1-5.3-1.8-7-7.1-6.9c-20.9,0.2-41.8,0-62.6,0.1c-21.7,0-21.6,0.1-20.5,21.6c0.2,4.2,1.6,5.9,5.9,5.8
			C86.5,281.4,94.1,281.5,102.8,281.5z"/>
		<path class="st0" d="M302.7,372.7c0,12.3,0.4,24.6-0.3,36.9c-0.2,3.7-2.9,9.2-5.7,10.2c-3.8,1.2-9-0.6-13.1-2.3
			c-1.8-0.8-3.3-4.5-3.3-7c-0.2-25.1-0.2-50.2-0.1-75.2c0-6.9,4.3-10.7,11.9-11.1c7-0.3,10,2.3,10.6,10.2c0.5,6.4,0.3,12.8,0.3,19.2
			c0,6.4,0,12.8,0,19.2C302.9,372.7,302.8,372.7,302.7,372.7z"/>
		<path class="st0" d="M398.4,354.8c-3.6,0.2-5.5,0.6-7.3,0.5c-5.4-0.6-10.7-1.4-16.1-2.1c0.7-8.3,0.6-16.9,2.6-24.9
			c0.6-2.2,7.5-3.9,11.4-3.7c2.6,0.1,6.8,3.5,7.2,6C397.7,338.2,397.8,346.2,398.4,354.8z"/>
	</g>
	<g>
		<path class="st0" d="M307.7,48.3c9.1,0,17.4,0,26.6,0c0,2.8,0,5.4,0,7.9c0,33-0.1,65.9,0.1,98.9c0,4.8-2.9,11.7,5.1,13.5
			c5.3,1.1,14.9-7.9,15.8-14.2c0.2-1.9,0.1-3.8,0.1-5.7c0-30.6,0-61.2,0-91.8c0-2.6,0-5.1,0-8.3c9,0,17.3,0,26.2,0
			c0,46.8,0,93.7,0,141.1c-8.4,0-16.7,0-25.7,0c-0.3-4.2-0.6-8.4-0.9-13.3c-4.7,3.9-8.5,7.7-12.9,10.7
			c-16.1,11.2-31.4,4.5-33.9-14.9c-0.5-4.2-0.5-8.5-0.5-12.8c0-34.4,0-68.8,0-103.1C307.7,53.9,307.7,51.5,307.7,48.3z"/>
		<path class="st0" d="M212.2,119.7c0-12.5-0.8-25.1,0.2-37.6c2.2-27.2,24-41.6,50-33.4c15,4.8,22.3,16.2,24,31.3
			c1,9.1,1.5,18.4,1.4,27.6c-0.1,17-0.2,34.1-1.3,51.1c-1.3,19.7-16.2,33.4-35.4,33.7c-20.7,0.4-36.7-12.7-38.5-32.9
			c-1.1-13.1-0.2-26.5-0.2-39.7C212.3,119.7,212.2,119.7,212.2,119.7z M260.9,120.2C260.9,120.2,260.9,120.2,260.9,120.2
			c0-12.1,0.2-24.2-0.1-36.2c-0.2-9.4-5.8-14.4-13.8-13c-5.7,1-8.9,5.8-9,14.3c-0.1,23-0.1,46,0,68.9c0,2.8,0.1,6.3,1.7,8.1
			c2.6,2.9,6.5,6.2,10,6.3c3.1,0.1,7.2-3.2,9.2-6.2c1.8-2.6,1.9-6.7,1.9-10.2C261.1,141.6,260.9,130.9,260.9,120.2z"/>
		<path class="st0" d="M118.4,0c10,0,19.3,0,29.4,0c3.1,11.7,6.3,23.6,9.4,35.4c3.2,11.9,6.4,23.7,11.1,35.8
			c6.3-23.5,12.6-47,19-70.9c9.7,0,19.2,0,29.5,0c-7.5,23.9-14.8,47.4-22.2,70.8c-3.9,12.4-7.9,24.8-11.6,37.3
			c-0.9,3.1-1.3,6.5-1.4,9.8c-0.1,21.1-0.1,42.2-0.1,63.3c0,2.6,0,5.1,0,8.2c-9.3,0-18,0-27.4,0c-0.1-2.5-0.4-5-0.4-7.5
			c0-19.9,0.2-39.8-0.2-59.7c-0.1-6.3-1.1-12.8-2.9-18.8C140.2,69.3,129.3,35,118.4,0z"/>
	</g>
</g>
</svg>
