<?xml version="1.0" encoding="utf-8"?>
<!-- Generator: Adobe Illustrator 24.0.2, SVG Export Plug-In . SVG Version: 6.00 Build 0)  -->
<svg version="1.1" id="Capa_1" xmlns="http://www.w3.org/2000/svg" xmlns:xlink="http://www.w3.org/1999/xlink" x="0px" y="0px"
	 viewBox="0 0 1182.1 293.5" style="enable-background:new 0 0 1182.1 293.5;" xml:space="preserve">
<style type="text/css">
	.st0{fill:#00A5AB;}
</style>
<path class="st0" d="M17.8,279.1c5.1,3.2,10.6,6.1,16.3,8.2c19,6.9,38.5,7.6,58.3,4.2c12.8-2.2,24.5-6.9,34.6-15.5
	c18.2-15.5,23-56.3-11.6-70c-3.9-1.6-7.9-3.2-12-3.9c-14.7-2.7-29.6-4.9-44.3-7.6c-3.9-0.7-7.8-2.2-11.4-4c-3.2-1.6-3.9-4.7-2.4-8.1
	c1.4-3.1,3.7-3.3,6.9-2.6c16.3,3.5,32.4,2.6,47.8-4.2c18.5-8.2,30.3-22,32.2-42.7c1.5-15.4,0.1-30.4-11-43.2
	c2.4-2.2,4.4-4.4,6.7-6.2c2.7-2.1,5.7-3.8,8.4-5.9c6.8-5.2,6.8-12.4,0.1-17.7c-6.8-5.4-15.8-5-21.3,1.8c-3.8,4.7-6.7,10.1-10.1,15.3
	c-0.3-0.1-0.9-0.3-1.4-0.6c-17.2-8.9-35.3-10.2-53.8-5.9c-21,4.9-36.8,16.5-41.5,38.5c-4.9,22.7-1.4,43.6,18.1,59.8
	c-8,5.7-15,11.8-16,22.2c-1,10.6,3.4,18.3,13.2,23.5C10.2,221.3,2.4,231.2,0,245.2c0,2.2,0,4.4,0,6.6
	C2.2,263.3,7.8,272.8,17.8,279.1z M49.9,106.5c3.2-8.6,10.1-13,19.2-13.2c9.1-0.1,16.3,3.9,19.9,12.3c5.5,12.9,5.4,26.2-0.2,39.1
	c-3.4,7.8-10,11.8-18.6,12c-8.7,0.1-15.8-3.6-19.3-11.6c-2.7-6.3-3.6-13.3-5.3-19.7C47.1,118.5,47.8,112.2,49.9,106.5z M46.5,228.8
	c5.3-5,11-7.8,18.6-5.9c7.1,1.8,14.5,2.5,21.4,4.7c7.6,2.3,13.8,6.8,14.2,15.9c0.4,9.4-4.4,15.9-12.6,19.4
	c-5.6,2.4-11.9,3.3-18.5,5.1c-6.4-2-13.4-3.1-19.3-6.2C37.2,254.8,35.7,239,46.5,228.8z M1000.3,121.2c6.4,45.4-15.6,76.6-57.9,88.2
	c-7.3,2-10.3-0.2-9.6-7.9c0.9-9.1,0.2-9.9,9.3-11.9c2-0.4,3.9-1.1,5.8-1.9c1.3-0.5,3.1-1.3,3.4-2.2c1.5-5.7,2.6-11.6,3.6-17.4
	c0.4-2.1,1.4-4.3,1.1-6.3c-0.3-2.7,0.1-4.5,2.5-5.9c2.9-1.7,2.9-3.6,0.7-6c-1.6-1.7-3-3.6-4.5-5.4c-2.3-2.7-3.8-5.2-2.7-9.2
	c0.6-2.2-0.6-5.1-1.4-7.6c-0.8-2.5-2.4-4.8-2.8-7.4c-0.2-1.5,0.7-3.8,1.9-4.8c3.4-2.6,3.6-3.9-0.1-6.4c-1.5-1-3.2-1.9-5-2.6
	c-10.7-4.3-21.9-5.8-33.3-7c-22.4-2.3-46.5,21.4-38.4,48.2c2,6.6,4.7,13.6,9.1,18.6c3.2,3.6,6.5,7.2,9.5,11.1
	c0.6,0.8,1.4,1.9,1.3,2.8c-0.2,6.8,0.1,13.8-1.2,20.5c-1.8,9.7-8.2,16.3-17.4,19.9c-9.9,3.9-20.3,4.3-31.8,4.9
	c10.9-9.2,15-21,10.9-32.2c-1.6-4.2-4.7-8-7.6-11.6c-19-24.1-21.1-50.5-9.8-78c7.7-18.9,22.9-30.6,41.9-37
	c30.5-10.3,60.4-8.8,88.6,7.2C984.8,84.1,997.3,99.5,1000.3,121.2z M380.9,60.8c-33.2-1.8-63.2,20.8-68.4,53.1
	c-2,12.7-1.3,25.9-0.6,38.8c0.9,17.1,8.5,31.2,21.9,41.9c16.1,12.9,34.9,16.9,55,16.1c15.1-0.6,29.5-4,41.5-13.9
	c9.5-7.8,10.5-16.1,3.7-26.4c-4.9-7.5-11.3-9.4-19.4-5.8c-4.3,1.9-8.3,4.3-12.7,6.1c-11.1,4.4-22.3,5-33.1-0.6
	c-8.8-4.5-13.4-13.2-12.1-22.8c1.9,0,3.9,0,5.9,0c19.5-0.2,39.1-0.1,58.6-0.8c9.4-0.3,15.1-5.9,17.4-15.1c2.6-10.4,1.9-20.8-1.5-31
	C429.3,77.4,407.8,62.2,380.9,60.8z M398,115.2c-0.4,2.9-1.5,5.3-4.9,5.3c-12.2,0.1-24.3,0-36.7,0c-2.2-19.9,13.1-31.3,30.6-23.7
	C394.7,100.1,399.1,107.6,398,115.2z M292,79.3c-0.2,11.6-0.1,23.2-0.1,34.7c-0.2,0-0.4,0-0.6,0c0,13.3,1.3,26.7-0.3,39.8
	c-3.1,26.3-18.6,44.1-43.2,53c-24.4,8.9-47,3.6-66.3-13.6c-14.3-12.7-21.5-28.8-21.4-48.2c0.1-20.7,0-41.3,0-62
	c0-11.9,3.9-16.8,15.6-19.6c6.3-1.5,12.5-1,18.4,1.6c7,3.1,11,7.8,10.8,16.2c-0.4,21.3-0.2,42.6-0.1,63.8c0,11.1,5.9,20.1,14.9,23.4
	c12.9,4.7,26.9-6.3,27-21.5c0.2-21.1,0.1-42.2,0.1-63.4c0-12.8,4.3-18.2,16.9-20.4c7.1-1.2,14.1-0.6,20.5,3
	C289.4,69.2,292.1,73.3,292,79.3z M671.7,188.3c-0.1,11.6-7.2,19.3-18.3,19.4c-12.3,0.2-24.7,0.8-36.8-2.7
	c-19.2-5.4-30.5-18.7-32.4-38.5c-0.4-4.5-0.7-9.1-0.7-13.6c0-44.3,0.3-88.5-0.2-132.8c-0.1-12.7,5.1-17.4,16.6-19.7
	c5.1-1,11-0.3,16.1,1c9.3,2.4,12.3,7.1,12.3,16.7c0,14.7,0,29.4,0,44.7c10.7,0,20.7,0,30.7,0c6.4,0,10,2,11.4,8.2
	c1.1,5.2,1.3,10.9,0.4,16c-1.2,6.9-5.1,9.2-12.1,9.2c-10,0-19.9,0-30.4,0c0,4.3,0,8,0,11.7c0,16,0,31.9,0,47.9
	c0,9.6,2.8,12.3,12.3,12.4c4.2,0,8.4-0.1,12.7,0C664.4,168.6,671.7,176.7,671.7,188.3z M563.5,169.2c-1.3,19.6-14.1,34.3-34.6,39.2
	c-6.9,1.6-14.2,2.1-21.3,3.1c-11.4-0.8-22.6-2.2-33.1-6.7c-4.3-1.8-8.5-4.1-12.3-6.8c-13.2-9.5-10.5-22-2.7-31.7
	c3.8-4.7,8.5-5.4,13.9-2.6c3.3,1.7,6.4,3.9,9.6,5.8c10.2,5.9,21.1,7.5,32.6,5.3c4.6-0.9,8.4-3.1,9-8.2c0.6-5.1-2.6-8.4-7-10
	c-7.9-2.9-16-5.2-24-7.8c-2.8-0.9-5.6-1.8-8.4-2.8c-28.1-10.2-32.5-33.5-25.2-55.7c5.3-16.1,17.7-24.6,33.7-27.9
	c17-3.5,33.9-2.2,50.3,3.8c0.9,0.3,1.7,0.7,2.6,1.1c15.4,7.1,18.6,16.1,7.2,32.2c-3.9,5.5-8.6,6.4-14.9,4c-4.4-1.7-8.6-3.8-13-5.3
	c-6.9-2.5-14-3.5-21.2-1.6c-1.9,0.5-3.9,1.3-5.5,2.5c-5.1,3.7-5,9.6,0.6,12.4c4.4,2.2,9.3,3.5,14.1,5c7,2.2,14.2,3.9,21,6.6
	C556.4,131.4,565.1,145.9,563.5,169.2z M1130.9,182.1c5.3,7.7,5.2,12.8-1.6,19c-4,3.6-8.8,6.5-13.7,8.6c-6.9,2.8-11.6,0.8-15.5-5.5
	c-8.3-13.1-16.5-26.2-24.7-39.2c-0.8-1.3-1.7-2.6-3-4.6c-9.3,14.9-18.2,29.2-27.1,43.5c-4.2,6.7-9.5,8.9-16.7,5.5
	c-5.1-2.4-10-5.9-14.1-9.7c-5.3-5-5.3-9.8-1.2-16c10.3-15.3,20.6-30.6,31-45.8c2-2.9,2-4.9,0-7.8c-9.5-13.6-18.7-27.3-28-41
	c-5-7.4-4.7-11.8,1.5-18.3c4.8-4.9,10.4-8.5,17.3-9.6c5.5-0.9,9.5,0.9,12.4,6c8,14,16.3,27.7,24.9,42.2c1.1-1.8,2.1-3.1,2.9-4.5
	c7.5-12.4,15-24.9,22.5-37.3c3.8-6.3,8.3-7.9,15.5-5.6c6.4,2.1,11.8,5.7,16,11c4.4,5.5,4.5,9.1,0.6,14.9
	c-9.7,14.4-19.4,28.7-29.3,43c-1.8,2.6-1.9,4.3,0,7C1110.6,152.4,1120.7,167.3,1130.9,182.1z M819.5,85.1
	c-10.4,25.4-20.8,50.8-31.2,76.1c-5.3,12.8-10.8,25.5-15.6,38.6c-2.7,7.4-7.8,10.7-15,11.3c-4.3,0.4-8.7-0.1-13-0.9
	c-4.3-0.8-7.3-3.6-9.1-7.9c-16-39.2-32.2-78.4-48.3-117.6c-3.4-8.2-2.4-13.1,5.2-17.5c5.1-3,11.1-5,16.9-6c7-1.1,10.2,1.7,12.7,8.3
	c9.7,26.6,19.3,53.3,29,79.9c0.6,1.7,1.3,3.5,2.4,6.1c9.8-26.7,19.2-52.4,28.6-78.2c0.9-2.5,1.8-5,2.8-7.5
	c2.9-7.8,7.6-10.7,15.6-8.5c5,1.4,10,3.8,14.3,6.7C821.8,72.8,822.7,77.3,819.5,85.1z M1182.1,57.5c-0.1,12.7-10.8,23.3-23.5,23.2
	c-12.8-0.1-23.3-10.6-23.3-23.4c0-12.8,10.4-23.3,23.2-23.4C1171.5,33.8,1182.3,44.6,1182.1,57.5z"/>
</svg>
